<?xml version="1.0" encoding="utf-8"?>
<svg version="1.1" id="Layer_1" xmlns="http://www.w3.org/2000/svg" xmlns:xlink="http://www.w3.org/1999/xlink" x="0px" y="0px"
	 viewBox="0 0 2003.303 1640.117" enable-background="new 0 0 2003.303 1640.117" xml:space="preserve">
<g>
	<path d="M1679.832,346.83c7.488-2.678,14.194-8.01,19.019-15.287c6.687-10.075,8.867-22.547,5.834-33.36
		c-3.449-12.321-12.984-22.429-24.852-27.951c-11.868,5.522-21.404,15.629-24.852,27.951c-3.034,10.813-0.853,23.285,5.833,33.36
		C1665.638,338.819,1672.343,344.152,1679.832,346.83z M1660.813,1308.575c-6.687,10.075-8.867,22.547-5.833,33.36
		c3.449,12.321,12.984,22.429,24.852,27.95c11.868-5.522,21.403-15.629,24.852-27.95c3.034-10.813,0.853-23.285-5.834-33.36
		c-4.825-7.277-11.53-12.61-19.019-15.287C1672.343,1295.965,1665.638,1301.298,1660.813,1308.575z M158.324,511.977
		c-2.677-7.488-8.01-14.194-15.287-19.019c-10.075-6.687-22.547-8.867-33.36-5.834c-12.321,3.449-22.429,12.984-27.951,24.852
		c5.522,11.868,15.629,21.404,27.951,24.852c10.813,3.034,23.285,0.853,33.36-5.834C150.314,526.17,155.647,519.465,158.324,511.977
		z M143.037,1109.122c-10.075-6.687-22.547-8.867-33.36-5.833c-12.321,3.449-22.429,12.984-27.951,24.852
		c5.522,11.868,15.629,21.403,27.951,24.852c10.813,3.034,23.285,0.853,33.36-5.834c7.277-4.825,12.61-11.53,15.287-19.019
		C155.647,1120.652,150.314,1113.947,143.037,1109.122z M1860.266,530.995c10.075,6.687,22.547,8.867,33.36,5.834
		c12.321-3.449,22.429-12.984,27.951-24.852c-5.522-11.868-15.629-21.403-27.951-24.852c-10.813-3.034-23.285-0.853-33.36,5.834
		c-7.277,4.825-12.61,11.53-15.287,19.019C1847.656,519.465,1852.989,526.17,1860.266,530.995z M1844.979,1128.141
		c2.677,7.488,8.01,14.194,15.287,19.019c10.075,6.687,22.547,8.867,33.36,5.834c12.321-3.449,22.429-12.984,27.951-24.852
		c-5.522-11.868-15.629-21.404-27.951-24.852c-10.813-3.034-23.285-0.853-33.36,5.833
		C1852.989,1113.947,1847.656,1120.652,1844.979,1128.141z M342.49,331.542c6.687-10.075,8.867-22.547,5.834-33.36
		c-3.449-12.321-12.984-22.429-24.852-27.951c-11.868,5.522-21.403,15.629-24.852,27.951c-3.034,10.813-0.853,23.285,5.834,33.36
		c4.825,7.277,11.53,12.61,19.019,15.287C330.96,344.152,337.665,338.819,342.49,331.542z M323.471,1293.288
		c-7.488,2.677-14.194,8.01-19.019,15.287c-6.687,10.075-8.867,22.547-5.834,33.36c3.449,12.321,12.984,22.429,24.852,27.95
		c11.868-5.522,21.404-15.629,24.852-27.95c3.034-10.813,0.853-23.285-5.834-33.36
		C337.665,1301.298,330.96,1295.965,323.471,1293.288z M1120.852,121.75c1.083-1.608,2.51-2.982,3.859-4.408
		c-0.534,1.268-1.042,2.537-1.426,3.772c-2.139,6.86-1.779,13.121,1.039,18.095c3.28,5.791,10.027,9.318,17.104,9.318
		c1.562,0,3.142-0.168,4.704-0.528c4.295-0.987,8.361-3.371,11.982-6.706c0.872,2.678,1.149,5.679,0.603,8.832
		c-1.033,5.935-4.427,11.024-9.084,13.601c-9.402,5.232-23.357,1.394-29.816-8.225
		C1113.439,146.021,1113.859,132.143,1120.852,121.75z M1119.819,1484.617c6.458-9.619,20.414-13.457,29.816-8.225
		c4.657,2.578,8.051,7.666,9.084,13.601c0.546,3.153,0.269,6.155-0.603,8.832c-3.621-3.335-7.687-5.719-11.982-6.706
		c-1.562-0.36-3.142-0.528-4.704-0.528c-7.077,0-13.823,3.526-17.104,9.318c-2.818,4.975-3.178,11.235-1.039,18.095
		c0.384,1.235,0.892,2.503,1.426,3.772c-1.349-1.427-2.777-2.8-3.859-4.408C1113.859,1507.974,1113.439,1494.096,1119.819,1484.617z
		 M883.484,155.501c-6.458,9.619-20.414,13.457-29.816,8.225c-4.657-2.578-8.051-7.666-9.084-13.601
		c-0.546-3.153-0.269-6.155,0.603-8.832c3.621,3.335,7.687,5.719,11.982,6.706c1.562,0.36,3.142,0.528,4.704,0.528
		c7.077,0,13.823-3.526,17.104-9.318c2.818-4.975,3.178-11.235,1.039-18.095c-0.384-1.235-0.892-2.503-1.426-3.772
		c1.349,1.427,2.777,2.8,3.859,4.408C889.443,132.143,889.864,146.021,883.484,155.501z M882.451,1518.367
		c-1.083,1.608-2.51,2.982-3.859,4.408c0.534-1.268,1.042-2.537,1.426-3.772c2.139-6.86,1.779-13.121-1.039-18.095
		c-3.281-5.791-10.027-9.318-17.104-9.318c-1.562,0-3.142,0.168-4.704,0.528c-4.295,0.987-8.361,3.371-11.982,6.706
		c-0.872-2.678-1.149-5.679-0.603-8.832c1.033-5.935,4.427-11.024,9.084-13.601c9.402-5.232,23.357-1.394,29.816,8.225
		C889.864,1494.096,889.443,1507.974,882.451,1518.367z M1302.211,210.35c4.837-4.334,11.143-6.754,17.174-6.933
		c-2.219,3.943-3.094,8.84-2.378,14.454c0.294,2.331,0.817,4.632,1.352,6.933c0.438,1.892,0.883,3.784,1.129,5.713
		c1.106,8.675-2.782,18.113-9.678,23.496c-4.747,3.701-10.964,5.473-17.116,5.31c5.231-10.215,5.932-22.773,1.518-33.368
		l0.001-0.004C1294.503,220.245,1297.339,214.706,1302.211,210.35z M1294.214,1414.165l-0.001-0.004
		c4.414-10.594,3.713-23.153-1.518-33.368c6.152-0.163,12.369,1.609,17.116,5.31c6.896,5.383,10.784,14.821,9.678,23.496
		c-0.247,1.929-0.691,3.821-1.129,5.713c-0.535,2.301-1.057,4.602-1.352,6.933c-0.716,5.614,0.159,10.512,2.378,14.454
		c-6.031-0.178-12.337-2.598-17.174-6.932C1297.339,1425.411,1294.503,1419.872,1294.214,1414.165z M709.088,225.953l0.002,0.004
		c-4.414,10.594-3.713,23.153,1.518,33.368c-6.152,0.163-12.369-1.609-17.116-5.31c-6.896-5.383-10.784-14.821-9.678-23.496
		c0.247-1.929,0.691-3.821,1.129-5.713c0.535-2.301,1.057-4.602,1.352-6.933c0.716-5.614-0.159-10.512-2.378-14.454
		c6.031,0.178,12.337,2.598,17.175,6.933C705.964,214.706,708.8,220.245,709.088,225.953z M701.092,1429.767
		c-4.837,4.334-11.143,6.754-17.175,6.932c2.219-3.943,3.094-8.84,2.378-14.454c-0.294-2.331-0.817-4.632-1.352-6.933
		c-0.438-1.892-0.883-3.784-1.129-5.713c-1.106-8.675,2.782-18.113,9.678-23.496c4.747-3.701,10.964-5.473,17.116-5.31
		c-5.231,10.214-5.932,22.773-1.518,33.368l-0.002,0.004C708.8,1419.872,705.964,1425.411,701.092,1429.767z M1741.571,262.22
		c-10.177,0-18.455-8.278-18.455-18.455c0-10.177,8.278-18.456,18.455-18.456c10.177,0,18.456,8.278,18.456,18.456
		C1760.026,253.942,1751.748,262.22,1741.571,262.22z M1760.026,1396.352c0,10.177-8.279,18.455-18.456,18.455
		c-10.177,0-18.455-8.278-18.455-18.455c0-10.177,8.278-18.455,18.455-18.455
		C1751.748,1377.897,1760.026,1386.175,1760.026,1396.352z M73.715,450.237c0,10.177-8.278,18.456-18.455,18.456
		c-10.177,0-18.456-8.278-18.456-18.456c0-10.177,8.278-18.456,18.456-18.456C65.437,431.782,73.715,440.061,73.715,450.237z
		 M55.26,1208.336c-10.177,0-18.456-8.279-18.456-18.456c0-10.177,8.278-18.455,18.456-18.455c10.177,0,18.455,8.278,18.455,18.455
		C73.715,1200.057,65.437,1208.336,55.26,1208.336z M1948.043,431.782c10.177,0,18.455,8.279,18.455,18.456
		c0,10.177-8.278,18.456-18.455,18.456c-10.177,0-18.455-8.278-18.455-18.456C1929.588,440.061,1937.866,431.782,1948.043,431.782z
		 M1929.588,1189.88c0-10.177,8.278-18.455,18.455-18.455c10.177,0,18.455,8.278,18.455,18.455c0,10.177-8.278,18.456-18.455,18.456
		C1937.866,1208.336,1929.588,1200.057,1929.588,1189.88z M243.276,243.765c0-10.177,8.279-18.456,18.456-18.456
		c10.177,0,18.456,8.278,18.456,18.456c0,10.177-8.278,18.455-18.456,18.455C251.555,262.22,243.276,253.942,243.276,243.765z
		 M261.732,1377.897c10.177,0,18.456,8.278,18.456,18.455c0,10.177-8.278,18.455-18.456,18.455
		c-10.177,0-18.456-8.278-18.456-18.455C243.276,1386.175,251.555,1377.897,261.732,1377.897z M1599.636,243.765
		c0-10.177,8.279-18.456,18.456-18.456c10.177,0,18.456,8.278,18.456,18.456c0,10.177-8.278,18.455-18.456,18.455
		C1607.915,262.22,1599.636,253.942,1599.636,243.765z M1618.092,1377.897c10.177,0,18.456,8.278,18.456,18.455
		c0,10.177-8.278,18.455-18.456,18.455c-10.177,0-18.456-8.278-18.456-18.455
		C1599.636,1386.175,1607.915,1377.897,1618.092,1377.897z M55.26,592.172c-10.177,0-18.456-8.279-18.456-18.456
		c0-10.177,8.278-18.456,18.456-18.456c10.177,0,18.455,8.278,18.455,18.456C73.715,583.893,65.437,592.172,55.26,592.172z
		 M73.715,1066.401c0,10.177-8.278,18.456-18.455,18.456c-10.177,0-18.456-8.278-18.456-18.456c0-10.177,8.278-18.456,18.456-18.456
		C65.437,1047.946,73.715,1056.224,73.715,1066.401z M1929.588,573.716c0-10.177,8.278-18.456,18.455-18.456
		c10.177,0,18.455,8.278,18.455,18.456c0,10.177-8.278,18.456-18.455,18.456C1937.866,592.172,1929.588,583.893,1929.588,573.716z
		 M1948.043,1047.946c10.177,0,18.455,8.279,18.455,18.456c0,10.177-8.278,18.456-18.455,18.456
		c-10.177,0-18.455-8.278-18.455-18.456C1929.588,1056.224,1937.866,1047.946,1948.043,1047.946z M385.211,262.22
		c-10.177,0-18.456-8.278-18.456-18.455c0-10.177,8.278-18.456,18.456-18.456c10.177,0,18.456,8.278,18.456,18.456
		C403.666,253.942,395.387,262.22,385.211,262.22z M403.666,1396.352c0,10.177-8.279,18.455-18.456,18.455
		c-10.177,0-18.456-8.278-18.456-18.455c0-10.177,8.278-18.455,18.456-18.455C395.387,1377.897,403.666,1386.175,403.666,1396.352z
		 M1001.651,305.5c0.229,0.271,0.46,0.541,0.692,0.81h-1.383C1001.192,306.041,1001.422,305.771,1001.651,305.5z M1000.96,1333.807
		h1.383c-0.232,0.269-0.463,0.539-0.692,0.811C1001.422,1334.346,1001.192,1334.076,1000.96,1333.807z M1001.651,170.999
		c1.831-11.385,5.736-22.437,11.55-32.404c8.501-14.569,21.021-26.722,35.776-34.857c1.31,16.99-2.613,34.533-11.175,49.209
		c-8.345,14.297-21.218,26.098-36.151,33.374c-14.933-7.276-27.806-19.076-36.151-33.374c-8.561-14.676-12.484-32.219-11.174-49.209
		c14.754,8.135,27.275,20.288,35.776,34.857C995.915,148.562,999.821,159.614,1001.651,170.999z M990.102,1501.522
		c-8.501,14.569-21.021,26.722-35.776,34.857c-1.31-16.99,2.613-34.533,11.174-49.209c8.345-14.297,21.218-26.098,36.151-33.374
		c14.933,7.276,27.806,19.076,36.151,33.374c8.561,14.677,12.484,32.219,11.175,49.209c-14.755-8.135-27.275-20.288-35.776-34.857
		c-5.813-9.966-9.719-21.018-11.55-32.404C999.821,1480.504,995.915,1491.556,990.102,1501.522z M1001.651,211.23
		c7.294-11.743,17.996-21.107,30.378-25.709c20.701-7.713,45.481-1.254,59.354,14.503c0.43,1.627,1.47,3.082,3.089,3.91
		c0.051,0.027,0.098,0.044,0.15,0.07c0.17,0.246,0.399,0.444,0.565,0.693c13.042,19.645,8.044,49.347-10.49,62.318
		c-6.85,4.796-14.979,7.06-22.634,6.673c-0.106-0.011-0.191-0.071-0.297-0.077c-2.554-0.15-6.17-2.775-8.994-6.542
		c-2.085-2.769-2.89-6.596-2.103-9.972c1.081-4.692,3.953-9.156,7.137-11.108c4.722-2.884,10.165-4.86,14.563-5.281
		c1.05-0.1,1.959-0.525,2.777-1.074c0.315-0.128,0.648-0.165,0.947-0.349c2.884-1.79,3.772-5.581,1.983-8.471
		c-7.641-12.346-25.676-16.449-38.593-8.766c-11.919,7.077-17.915,22.92-13.944,36.845c3.665,12.851,14.96,23.166,28.777,26.277
		c2.187,0.495,4.473,0.589,6.748,0.719l0.013,0.001c10.45,0.598,21.504-2.373,30.672-8.795
		c15.984-11.187,23.969-31.219,22.773-50.838c27.252,38.479,68.608,67.287,114.309,78.689c2.434,0.606,4.811,0.864,7.23,1.363
		h-216.586c-7.226-6.383-13.244-13.947-17.825-22.16c-4.582,8.214-10.6,15.777-17.825,22.16H767.24
		c2.419-0.499,4.796-0.758,7.23-1.363c45.7-11.402,87.057-40.21,114.309-78.689c-1.196,19.619,6.789,39.651,22.773,50.838
		c9.168,6.421,20.222,9.393,30.672,8.795l0.013-0.001c2.275-0.131,4.562-0.224,6.748-0.719
		c13.818-3.112,25.112-13.427,28.777-26.277c3.971-13.925-2.025-29.768-13.944-36.845c-12.917-7.684-30.952-3.58-38.593,8.766
		c-1.79,2.89-0.901,6.681,1.982,8.471c0.299,0.184,0.632,0.221,0.947,0.349c0.819,0.55,1.728,0.974,2.777,1.074
		c4.397,0.421,9.841,2.397,14.563,5.281c3.184,1.953,6.056,6.416,7.137,11.108c0.787,3.376-0.018,7.203-2.103,9.972
		c-2.824,3.767-6.44,6.392-8.994,6.542c-0.106,0.006-0.192,0.066-0.297,0.077c-7.655,0.386-15.784-1.877-22.634-6.673
		c-18.534-12.971-23.532-42.673-10.489-62.318c0.166-0.249,0.395-0.447,0.565-0.693c0.052-0.026,0.099-0.043,0.15-0.07
		c1.618-0.828,2.659-2.283,3.089-3.91c13.873-15.757,38.654-22.217,59.354-14.503C983.656,190.123,994.358,199.487,1001.651,211.23z
		 M971.273,1454.596c-20.701,7.713-45.481,1.253-59.354-14.503c-0.43-1.626-1.47-3.082-3.089-3.91
		c-0.051-0.027-0.098-0.044-0.15-0.07c-0.17-0.246-0.399-0.444-0.565-0.693c-13.043-19.645-8.044-49.347,10.489-62.318
		c6.85-4.796,14.979-7.06,22.634-6.673c0.106,0.011,0.191,0.071,0.297,0.077c2.554,0.15,6.17,2.775,8.994,6.542
		c2.085,2.769,2.89,6.596,2.103,9.972c-1.081,4.692-3.953,9.156-7.137,11.108c-4.722,2.884-10.166,4.86-14.563,5.281
		c-1.05,0.1-1.959,0.525-2.777,1.074c-0.315,0.128-0.648,0.165-0.947,0.349c-2.884,1.79-3.772,5.581-1.982,8.471
		c7.641,12.346,25.676,16.449,38.593,8.766c11.919-7.077,17.915-22.92,13.944-36.845c-3.665-12.851-14.96-23.166-28.777-26.277
		c-2.187-0.495-4.473-0.589-6.748-0.719l-0.013-0.001c-10.45-0.598-21.503,2.373-30.672,8.795
		c-15.984,11.187-23.969,31.219-22.773,50.838c-27.252-38.479-68.608-67.287-114.309-78.689c-2.434-0.606-4.811-0.864-7.23-1.364
		h216.586c7.226,6.383,13.244,13.947,17.825,22.161c4.582-8.214,10.6-15.777,17.825-22.161h216.586
		c-2.419,0.499-4.796,0.758-7.23,1.364c-45.7,11.402-87.057,40.21-114.309,78.689c1.196-19.619-6.789-39.651-22.773-50.838
		c-9.168-6.421-20.222-9.393-30.672-8.795l-0.013,0.001c-2.275,0.131-4.562,0.224-6.748,0.719
		c-13.818,3.112-25.112,13.427-28.777,26.277c-3.971,13.925,2.025,29.768,13.944,36.845c12.917,7.684,30.952,3.58,38.593-8.766
		c1.79-2.89,0.901-6.681-1.983-8.471c-0.299-0.184-0.632-0.221-0.947-0.349c-0.819-0.55-1.728-0.974-2.777-1.074
		c-4.397-0.421-9.841-2.397-14.563-5.281c-3.184-1.953-6.056-6.416-7.137-11.108c-0.787-3.376,0.018-7.203,2.103-9.972
		c2.824-3.767,6.44-6.392,8.994-6.542c0.106-0.006,0.192-0.066,0.297-0.077c7.655-0.386,15.784,1.877,22.634,6.673
		c18.534,12.971,23.532,42.673,10.49,62.318c-0.166,0.249-0.395,0.447-0.565,0.693c-0.052,0.026-0.099,0.043-0.15,0.07
		c-1.618,0.828-2.659,2.283-3.089,3.91c-13.873,15.757-38.654,22.217-59.354,14.503c-12.383-4.602-23.085-13.966-30.378-25.709
		C994.358,1440.63,983.656,1449.995,971.273,1454.596z M1037.376,255.516c-2.45-8.584,1.238-18.641,8.393-22.895
		c4.076-2.426,9.185-2.52,13.669-1.089c-2.745,1.097-5.476,2.387-8.052,3.961c-7.173,4.392-11.264,12.604-12.706,18.828
		c-0.245,1.057-0.276,2.141-0.374,3.218C1038.029,256.85,1037.578,256.225,1037.376,255.516z M1038.306,1382.579
		c0.097,1.077,0.129,2.161,0.374,3.218c1.442,6.224,5.533,14.436,12.706,18.828c2.576,1.574,5.307,2.864,8.052,3.961
		c-4.483,1.431-9.593,1.337-13.669-1.089c-7.156-4.254-10.844-14.311-8.393-22.895
		C1037.578,1383.893,1038.029,1383.267,1038.306,1382.579z M964.997,257.538c-0.097-1.077-0.129-2.161-0.374-3.218
		c-1.442-6.224-5.533-14.436-12.706-18.828c-2.576-1.574-5.307-2.864-8.052-3.961c4.483-1.431,9.593-1.337,13.669,1.089
		c7.155,4.254,10.844,14.311,8.393,22.895C965.725,256.225,965.274,256.85,964.997,257.538z M965.927,1384.602
		c2.45,8.584-1.238,18.641-8.393,22.895c-4.076,2.426-9.185,2.52-13.669,1.089c2.746-1.097,5.476-2.387,8.052-3.961
		c7.173-4.392,11.264-12.604,12.706-18.828c0.245-1.057,0.276-2.141,0.374-3.218
		C965.274,1383.267,965.725,1383.893,965.927,1384.602z M1679.832,284.442c6.24,4.192,11.071,10.15,13.005,17.057
		c2.079,7.419,0.493,16.106-4.235,23.244c-2.396,3.609-5.413,6.482-8.77,8.47c-3.357-1.988-6.374-4.861-8.77-8.47
		c-4.728-7.138-6.314-15.824-4.235-23.244C1668.76,294.592,1673.591,288.634,1679.832,284.442z M1666.826,1338.619
		c-2.079-7.419-0.493-16.106,4.235-23.244c2.396-3.609,5.413-6.482,8.77-8.47c3.357,1.988,6.374,4.861,8.77,8.47
		c4.728,7.138,6.314,15.824,4.235,23.244c-1.934,6.907-6.765,12.865-13.005,17.057
		C1673.591,1351.483,1668.76,1345.525,1666.826,1338.619z M95.936,511.977c4.192-6.241,10.15-11.071,17.057-13.005
		c7.419-2.079,16.106-0.493,23.244,4.235c3.609,2.395,6.482,5.413,8.47,8.77c-1.988,3.357-4.861,6.374-8.47,8.77
		c-7.138,4.728-15.824,6.314-23.244,4.235C106.087,523.048,100.129,518.217,95.936,511.977z M112.993,1115.135
		c7.419-2.079,16.106-0.493,23.244,4.235c3.609,2.396,6.482,5.413,8.47,8.77c-1.988,3.357-4.861,6.374-8.47,8.77
		c-7.138,4.728-15.824,6.314-23.244,4.235c-6.907-1.934-12.864-6.765-17.057-13.005
		C100.129,1121.9,106.087,1117.069,112.993,1115.135z M1890.31,524.982c-7.419,2.079-16.106,0.493-23.244-4.235
		c-3.609-2.396-6.482-5.413-8.47-8.77c1.988-3.357,4.861-6.374,8.47-8.77c7.138-4.728,15.824-6.314,23.244-4.235
		c6.907,1.934,12.865,6.765,17.057,13.005C1903.174,518.217,1897.216,523.048,1890.31,524.982z M1907.367,1128.141
		c-4.193,6.24-10.15,11.071-17.057,13.005c-7.419,2.079-16.106,0.493-23.244-4.235c-3.609-2.396-6.482-5.413-8.47-8.77
		c1.988-3.357,4.861-6.374,8.47-8.77c7.138-4.728,15.824-6.314,23.244-4.235C1897.216,1117.069,1903.174,1121.9,1907.367,1128.141z
		 M336.477,301.499c2.079,7.419,0.493,16.106-4.235,23.244c-2.395,3.609-5.413,6.482-8.77,8.47c-3.357-1.988-6.374-4.861-8.77-8.47
		c-4.728-7.138-6.314-15.824-4.235-23.244c1.934-6.907,6.765-12.864,13.005-17.057C329.712,288.634,334.543,294.592,336.477,301.499
		z M323.471,1355.676c-6.241-4.193-11.071-10.15-13.005-17.057c-2.079-7.419-0.493-16.106,4.235-23.244
		c2.395-3.609,5.413-6.482,8.77-8.47c3.357,1.988,6.374,4.861,8.77,8.47c4.728,7.138,6.314,15.824,4.235,23.244
		C334.543,1345.525,329.712,1351.483,323.471,1355.676z M1885.498,605.76c0.724-1.138,1.161-2.474,1.015-3.928
		c-0.372-3.376-3.412-5.816-6.788-5.443c-32.886,3.623-67.147-18.022-78.003-49.274c-3.906-11.233-4.665-23.375-2.729-35.137
		c-1.936-11.762-1.177-23.905,2.729-35.137c10.856-31.252,45.117-52.897,78.003-49.274c3.376,0.372,6.416-2.067,6.788-5.443
		c0.146-1.454-0.291-2.79-1.015-3.928V306.31h-111.883c-1.138-0.724-2.474-1.161-3.928-1.015c-3.376,0.372-5.816,3.412-5.443,6.788
		c3.623,32.886-18.022,67.147-49.275,78.003c-11.233,3.906-23.375,4.665-35.137,2.729c-11.762,1.936-23.905,1.177-35.137-2.729
		c-31.252-10.856-52.897-45.117-49.274-78.003c0.372-3.376-2.067-6.416-5.443-6.788c-1.454-0.146-2.79,0.291-3.928,1.015h-286.041
		c2.013-0.483,4.142-0.727,6.102-1.309c18.45-5.485,33.613-15.122,43.856-27.882c6.589-8.2,10.874-17.604,12.792-27.203h224.792
		c0.141,0,0.259-0.071,0.397-0.08c2.83,14.06,15.265,24.687,30.145,24.687c16.96,0,30.76-13.8,30.76-30.759
		c0-16.96-13.8-30.759-30.76-30.759c-14.88,0-27.315,10.627-30.145,24.687c-0.138-0.009-0.256-0.08-0.397-0.08h-223.669
		c-0.091-4.01-0.567-7.988-1.569-11.847c-4.945-19.014-21.844-33.619-40.186-34.73c-9.918-0.528-20.234,3.088-28.122,10.147
		c-7.335,6.56-11.625,15.139-12.081,24.145c-0.04,0.799,0.1,1.562,0.343,2.277c-0.023,0.878,0.102,1.768,0.479,2.626
		c4.17,9.468,2.181,21.405-4.836,29.016c-1.376,1.496-1.929,3.575-1.472,5.551c0.456,1.982,1.862,3.61,3.755,4.35
		c4.338,1.694,8.969,2.517,13.607,2.517c8.441,0,16.894-2.733,23.58-7.953c10.357-8.075,15.974-21.718,14.316-34.742
		c-0.294-2.338-0.817-4.638-1.352-6.939c-0.438-1.893-0.884-3.785-1.129-5.713c-0.253-1.953-0.415-5.527,1.279-7.606
		c0.745-0.919,2.187-1.153,2.553-0.997c1.051,0.946,2.349,1.36,3.66,1.453c6.462,4.666,11.61,11.669,13.696,19.693
		c3.394,13.079-0.445,28.626-10.027,40.558c-10.958,13.637-26.59,20.462-37.776,23.784c-20.876,6.2-45.357,6.14-70.788-0.198
		c-44.319-11.053-84.241-39.581-109.726-77.524c11.825,3.861,22.906,6.016,33.123,6.016c9.402,0,18.161-1.629,26.349-4.879
		c28.825-11.438,46.373-45.267,39.122-75.414c-7.251-30.141-38.275-52.351-69.124-49.401c-16.966,1.598-32.261,10.231-40.912,23.082
		c-9.714,14.442-10.135,33.967-1.04,47.49c10.009,14.838,31.072,20.378,46.001,12.117c7.87-4.368,13.566-12.689,15.235-22.258
		c1.569-9.023-0.678-17.789-6.169-24.049c-1.173-1.332-2.786-2.003-4.423-2.058c-2.53-0.854-5.4-0.074-6.997,2.245
		c-1.647,2.379-5.113,6.542-9.87,7.635c-3.347,0.751-7.011-0.493-8.351-2.859c-1.466-2.584-0.625-6.356,0.006-8.375
		c3.142-10.129,11.823-18.966,20.244-20.71c23.857-0.897,47.872,16.839,53.434,40.013c5.779,24.013-8.735,51.996-31.696,61.104
		c-19.675,7.818-44.155,4.123-74.677-11.114c-14.321-17.998-38.709-26.938-62.098-23.226c3.002-3.71,5.788-7.586,8.182-11.691
		c11.415-19.561,15.638-43.555,11.601-65.832c-0.337-1.851-1.502-3.448-3.166-4.332c-1.67-0.883-3.641-0.943-5.359-0.204
		c-20.348,8.928-37.722,24.415-48.92,43.615c-0.316,0.542-0.626,1.087-0.929,1.636c-0.303-0.549-0.612-1.094-0.929-1.636
		c-11.198-19.2-28.572-34.688-48.92-43.615c-1.718-0.739-3.688-0.678-5.359,0.204c-1.664,0.883-2.83,2.481-3.166,4.332
		c-4.037,22.276,0.186,46.27,11.601,65.832c2.393,4.105,5.18,7.981,8.182,11.691c-23.389-3.712-47.776,5.228-62.098,23.226
		c-30.522,15.237-55.003,18.932-74.677,11.114c-22.961-9.107-37.476-37.091-31.696-61.104c5.562-23.174,29.577-40.909,53.434-40.013
		c8.422,1.744,17.102,10.581,20.244,20.71c0.631,2.019,1.472,5.791,0.006,8.375c-1.34,2.367-5.004,3.61-8.351,2.859
		c-4.758-1.093-8.224-5.256-9.87-7.635c-1.598-2.318-4.467-3.099-6.997-2.245c-1.637,0.055-3.25,0.726-4.423,2.058
		c-5.491,6.26-7.738,15.026-6.169,24.049c1.67,9.57,7.365,17.891,15.235,22.258c14.929,8.26,35.992,2.721,46.001-12.117
		c9.096-13.523,8.675-33.048-1.039-47.49c-8.651-12.851-23.947-21.483-40.912-23.082c-30.849-2.95-61.873,19.26-69.124,49.401
		c-7.251,30.146,10.297,63.975,39.122,75.414c8.189,3.25,16.948,4.879,26.35,4.879c10.217,0,21.298-2.155,33.123-6.016
		c-25.485,37.943-65.407,66.471-109.726,77.524c-25.43,6.338-49.911,6.398-70.788,0.198c-11.186-3.322-26.818-10.147-37.776-23.784
		c-9.582-11.932-13.421-27.479-10.027-40.558c2.086-8.025,7.234-15.028,13.696-19.693c1.311-0.094,2.609-0.507,3.66-1.453
		c0.366-0.156,1.808,0.078,2.553,0.997c1.694,2.079,1.532,5.653,1.279,7.606c-0.246,1.928-0.691,3.821-1.129,5.713
		c-0.534,2.301-1.057,4.602-1.352,6.939c-1.658,13.024,3.959,26.668,14.316,34.742c6.687,5.221,15.139,7.953,23.58,7.953
		c4.638,0,9.269-0.823,13.607-2.517c1.892-0.739,3.298-2.367,3.755-4.35c0.457-1.976-0.096-4.055-1.472-5.551
		c-7.016-7.612-9.006-19.549-4.836-29.016c0.378-0.858,0.502-1.748,0.479-2.626c0.243-0.715,0.383-1.477,0.343-2.277
		c-0.456-9.006-4.746-17.585-12.081-24.145c-7.888-7.059-18.204-10.675-28.122-10.147c-18.342,1.112-35.241,15.716-40.186,34.73
		c-1.002,3.859-1.479,7.837-1.569,11.847H415.753c-0.141,0-0.259,0.071-0.398,0.08c-2.829-14.06-15.265-24.687-30.145-24.687
		c-16.96,0-30.759,13.8-30.759,30.759c0,16.959,13.8,30.759,30.759,30.759c14.88,0,27.315-10.627,30.145-24.687
		c0.138,0.009,0.256,0.08,0.398,0.08h224.792c1.919,9.599,6.204,19.002,12.792,27.203c10.243,12.76,25.406,22.397,43.856,27.882
		c1.961,0.582,4.09,0.826,6.102,1.309H417.254c-1.138-0.724-2.474-1.161-3.928-1.015c-3.376,0.372-5.816,3.412-5.443,6.788
		c3.623,32.886-18.022,67.147-49.274,78.003c-11.233,3.906-23.375,4.665-35.137,2.729c-11.762,1.936-23.905,1.177-35.137-2.729
		c-31.252-10.856-52.897-45.117-49.274-78.003c0.372-3.376-2.067-6.416-5.443-6.788c-1.454-0.146-2.79,0.291-3.928,1.015H117.805
		v111.883c-0.724,1.138-1.161,2.474-1.015,3.928c0.372,3.376,3.412,5.816,6.788,5.443c32.886-3.623,67.147,18.022,78.003,49.274
		c3.906,11.233,4.665,23.375,2.73,35.137c1.936,11.762,1.177,23.905-2.73,35.137c-10.856,31.252-45.117,52.898-78.003,49.274
		c-3.376-0.372-6.416,2.067-6.788,5.443c-0.146,1.454,0.291,2.79,1.015,3.928v428.598c-0.724,1.138-1.161,2.474-1.015,3.928
		c0.372,3.376,3.412,5.816,6.788,5.443c32.886-3.623,67.147,18.022,78.003,49.274c3.906,11.233,4.665,23.375,2.73,35.137
		c1.936,11.762,1.177,23.905-2.73,35.137c-10.856,31.252-45.117,52.898-78.003,49.275c-3.376-0.372-6.416,2.067-6.788,5.443
		c-0.146,1.454,0.291,2.79,1.015,3.928v111.883h111.883c1.138,0.724,2.474,1.161,3.928,1.015c3.376-0.372,5.816-3.412,5.443-6.788
		c-3.623-32.886,18.022-67.147,49.274-78.003c11.233-3.906,23.375-4.665,35.137-2.729c11.762-1.936,23.905-1.177,35.137,2.729
		c31.252,10.856,52.898,45.117,49.274,78.003c-0.372,3.376,2.067,6.416,5.443,6.788c1.454,0.146,2.79-0.291,3.928-1.015h286.041
		c-2.013,0.483-4.142,0.727-6.102,1.309c-18.45,5.485-33.613,15.121-43.856,27.882c-6.589,8.2-10.874,17.604-12.792,27.203H415.753
		c-0.141,0-0.259,0.071-0.398,0.08c-2.829-14.06-15.265-24.687-30.145-24.687c-16.96,0-30.759,13.8-30.759,30.759
		c0,16.96,13.8,30.759,30.759,30.759c14.88,0,27.315-10.627,30.145-24.687c0.138,0.009,0.256,0.08,0.398,0.08h223.669
		c0.091,4.01,0.567,7.988,1.569,11.847c4.945,19.014,21.844,33.619,40.186,34.73c9.918,0.528,20.234-3.088,28.122-10.147
		c7.335-6.56,11.625-15.139,12.081-24.145c0.04-0.799-0.1-1.562-0.343-2.277c0.023-0.878-0.102-1.768-0.479-2.626
		c-4.17-9.468-2.181-21.405,4.836-29.016c1.376-1.496,1.929-3.575,1.472-5.551c-0.456-1.982-1.862-3.61-3.755-4.35
		c-4.338-1.694-8.969-2.517-13.607-2.517c-8.441,0-16.894,2.733-23.58,7.953c-10.357,8.074-15.974,21.718-14.316,34.742
		c0.294,2.338,0.817,4.638,1.352,6.939c0.438,1.893,0.883,3.785,1.129,5.713c0.253,1.953,0.415,5.527-1.279,7.606
		c-0.745,0.919-2.187,1.153-2.553,0.997c-1.051-0.946-2.349-1.36-3.66-1.453c-6.462-4.666-11.61-11.669-13.696-19.693
		c-3.394-13.079,0.445-28.626,10.027-40.558c10.958-13.637,26.59-20.462,37.776-23.784c20.876-6.2,45.357-6.14,70.788,0.198
		c44.319,11.053,84.241,39.581,109.726,77.524c-11.825-3.861-22.906-6.016-33.123-6.016c-9.402,0-18.161,1.629-26.35,4.879
		c-28.825,11.438-46.373,45.267-39.122,75.414c7.251,30.141,38.275,52.351,69.124,49.401c16.966-1.598,32.261-10.231,40.912-23.082
		c9.714-14.442,10.135-33.967,1.039-47.49c-10.009-14.838-31.072-20.378-46.001-12.117c-7.87,4.368-13.566,12.689-15.235,22.258
		c-1.569,9.023,0.678,17.789,6.169,24.049c1.173,1.332,2.786,2.003,4.423,2.058c2.53,0.854,5.4,0.074,6.997-2.245
		c1.647-2.379,5.113-6.542,9.87-7.635c3.347-0.751,7.011,0.493,8.351,2.859c1.466,2.583,0.625,6.356-0.006,8.375
		c-3.142,10.129-11.822,18.966-20.244,20.71c-23.857,0.897-47.872-16.839-53.434-40.012c-5.779-24.013,8.735-51.996,31.696-61.104
		c19.675-7.818,44.155-4.123,74.677,11.114c14.321,17.998,38.709,26.938,62.098,23.226c-3.002,3.71-5.788,7.586-8.182,11.691
		c-11.415,19.561-15.638,43.555-11.601,65.832c0.337,1.851,1.502,3.448,3.166,4.332c1.67,0.883,3.641,0.943,5.359,0.204
		c20.348-8.928,37.722-24.416,48.92-43.615c0.316-0.542,0.626-1.088,0.929-1.636c0.303,0.549,0.612,1.094,0.929,1.636
		c11.198,19.2,28.572,34.688,48.92,43.615c1.718,0.739,3.688,0.678,5.359-0.204c1.664-0.884,2.83-2.481,3.166-4.332
		c4.037-22.276-0.187-46.27-11.601-65.832c-2.393-4.104-5.18-7.981-8.182-11.691c23.389,3.712,47.776-5.228,62.098-23.226
		c30.522-15.237,55.002-18.932,74.677-11.114c22.961,9.107,37.476,37.091,31.696,61.104c-5.562,23.174-29.577,40.909-53.434,40.012
		c-8.422-1.744-17.102-10.581-20.244-20.71c-0.631-2.019-1.472-5.791-0.006-8.375c1.34-2.367,5.004-3.61,8.351-2.859
		c4.758,1.093,8.224,5.256,9.87,7.635c1.598,2.318,4.467,3.099,6.997,2.245c1.637-0.055,3.25-0.726,4.423-2.058
		c5.491-6.26,7.738-15.026,6.169-24.049c-1.67-9.57-7.365-17.891-15.235-22.258c-14.929-8.26-35.992-2.721-46.001,12.117
		c-9.095,13.523-8.675,33.048,1.04,47.49c8.651,12.851,23.947,21.483,40.912,23.082c30.849,2.95,61.873-19.26,69.124-49.401
		c7.251-30.146-10.297-63.975-39.122-75.414c-8.189-3.25-16.948-4.879-26.349-4.879c-10.218,0-21.298,2.155-33.123,6.016
		c25.485-37.943,65.407-66.471,109.726-77.524c25.43-6.338,49.911-6.398,70.788-0.198c11.186,3.322,26.818,10.147,37.776,23.784
		c9.582,11.932,13.421,27.479,10.027,40.558c-2.086,8.025-7.234,15.028-13.696,19.693c-1.311,0.094-2.609,0.507-3.66,1.453
		c-0.366,0.156-1.808-0.078-2.553-0.997c-1.694-2.079-1.532-5.653-1.279-7.606c0.246-1.928,0.691-3.821,1.129-5.713
		c0.534-2.301,1.057-4.602,1.352-6.939c1.658-13.024-3.959-26.668-14.316-34.742c-6.687-5.221-15.139-7.953-23.58-7.953
		c-4.638,0-9.269,0.823-13.607,2.517c-1.892,0.739-3.298,2.367-3.755,4.35c-0.457,1.977,0.096,4.055,1.472,5.551
		c7.016,7.612,9.006,19.549,4.836,29.016c-0.378,0.858-0.502,1.748-0.479,2.626c-0.243,0.715-0.383,1.477-0.343,2.277
		c0.456,9.006,4.746,17.585,12.081,24.145c7.888,7.059,18.204,10.675,28.122,10.147c18.342-1.112,35.241-15.716,40.186-34.73
		c1.002-3.859,1.479-7.837,1.569-11.847h223.669c0.141,0,0.259-0.071,0.397-0.08c2.83,14.061,15.265,24.687,30.145,24.687
		c16.96,0,30.76-13.8,30.76-30.759c0-16.959-13.8-30.759-30.76-30.759c-14.88,0-27.315,10.627-30.145,24.687
		c-0.138-0.009-0.256-0.08-0.397-0.08h-224.792c-1.919-9.599-6.204-19.002-12.792-27.203c-10.243-12.76-25.406-22.397-43.856-27.882
		c-1.961-0.582-4.09-0.826-6.102-1.309h286.041c1.138,0.724,2.474,1.161,3.928,1.015c3.376-0.372,5.816-3.412,5.443-6.788
		c-3.623-32.886,18.022-67.147,49.274-78.003c11.233-3.906,23.375-4.665,35.137-2.729c11.762-1.936,23.905-1.177,35.137,2.729
		c31.252,10.856,52.897,45.117,49.275,78.003c-0.372,3.376,2.067,6.416,5.443,6.788c1.454,0.146,2.79-0.291,3.928-1.015h111.883
		v-111.883c0.724-1.138,1.161-2.474,1.015-3.928c-0.372-3.376-3.412-5.816-6.788-5.443c-32.886,3.623-67.147-18.022-78.003-49.275
		c-3.906-11.233-4.665-23.375-2.729-35.137c-1.936-11.762-1.177-23.905,2.729-35.137c10.856-31.252,45.117-52.897,78.003-49.274
		c3.376,0.372,6.416-2.067,6.788-5.443c0.146-1.454-0.291-2.79-1.015-3.928V605.76z M1954.195,604.259
		c0-0.141-0.071-0.259-0.08-0.398c14.061-2.829,24.687-15.265,24.687-30.145c0-16.96-13.8-30.759-30.759-30.759
		c-16.959,0-30.759,13.8-30.759,30.759c0,14.88,10.627,27.316,24.687,30.145c-0.009,0.138-0.08,0.256-0.08,0.398v431.6
		c0,0.141,0.071,0.259,0.08,0.397c-14.06,2.83-24.687,15.265-24.687,30.145c0,16.96,13.8,30.76,30.759,30.76
		c16.96,0,30.759-13.8,30.759-30.76c0-14.88-10.627-27.315-24.687-30.145c0.009-0.138,0.08-0.256,0.08-0.397V604.259z
		 M61.412,604.259c0-0.141-0.071-0.259-0.08-0.398c14.06-2.829,24.687-15.265,24.687-30.145c0-16.96-13.8-30.759-30.759-30.759
		c-16.96,0-30.759,13.8-30.759,30.759c0,14.88,10.627,27.316,24.687,30.145c-0.009,0.138-0.08,0.256-0.08,0.398v431.6
		c0,0.141,0.071,0.259,0.08,0.397c-14.06,2.83-24.687,15.265-24.687,30.145c0,16.96,13.8,30.76,30.759,30.76
		c16.959,0,30.759-13.8,30.759-30.76c0-14.88-10.627-27.315-24.687-30.145c0.009-0.138,0.08-0.256,0.08-0.397V604.259z
		 M49.108,237.613v182.082c0,0.141,0.071,0.259,0.08,0.398c-14.06,2.829-24.687,15.265-24.687,30.145
		c0,16.96,13.8,30.759,30.759,30.759c16.959,0,30.759-13.8,30.759-30.759c0-14.88-10.627-27.315-24.687-30.145
		c0.009-0.138,0.08-0.256,0.08-0.398V249.917h169.778c0.141,0,0.259-0.071,0.398-0.08c2.829,14.06,15.265,24.687,30.145,24.687
		c16.96,0,30.759-13.8,30.759-30.759c0-16.96-13.8-30.759-30.759-30.759c-14.88,0-27.315,10.627-30.145,24.687
		c-0.138-0.009-0.256-0.08-0.398-0.08H49.108z M231.189,1402.504c0.141,0,0.259-0.071,0.398-0.08
		c2.829,14.061,15.265,24.687,30.145,24.687c16.96,0,30.759-13.8,30.759-30.759c0-16.959-13.8-30.759-30.759-30.759
		c-14.88,0-27.315,10.627-30.145,24.687c-0.138-0.009-0.256-0.08-0.398-0.08H61.412v-169.778c0-0.141-0.071-0.259-0.08-0.398
		c14.06-2.829,24.687-15.265,24.687-30.145c0-16.96-13.8-30.759-30.759-30.759c-16.96,0-30.759,13.8-30.759,30.759
		c0,14.88,10.627,27.316,24.687,30.145c-0.009,0.138-0.08,0.256-0.08,0.398v182.082H231.189z M1954.195,237.613h-182.082
		c-0.141,0-0.259,0.071-0.398,0.08c-2.829-14.06-15.265-24.687-30.145-24.687c-16.96,0-30.759,13.8-30.759,30.759
		c0,16.959,13.8,30.759,30.759,30.759c14.88,0,27.316-10.627,30.145-24.687c0.138,0.009,0.256,0.08,0.398,0.08h169.778v169.778
		c0,0.141,0.071,0.259,0.08,0.398c-14.06,2.829-24.687,15.265-24.687,30.145c0,16.96,13.8,30.759,30.759,30.759
		c16.96,0,30.759-13.8,30.759-30.759c0-14.88-10.627-27.315-24.687-30.145c0.009-0.138,0.08-0.256,0.08-0.398V237.613z
		 M1954.195,1220.423c0-0.141-0.071-0.259-0.08-0.398c14.061-2.829,24.687-15.265,24.687-30.145c0-16.96-13.8-30.759-30.759-30.759
		c-16.959,0-30.759,13.8-30.759,30.759c0,14.88,10.627,27.316,24.687,30.145c-0.009,0.138-0.08,0.256-0.08,0.398V1390.2h-169.778
		c-0.141,0-0.259,0.071-0.398,0.08c-2.829-14.06-15.265-24.687-30.145-24.687c-16.96,0-30.759,13.8-30.759,30.759
		c0,16.96,13.8,30.759,30.759,30.759c14.88,0,27.316-10.627,30.145-24.687c0.138,0.009,0.256,0.08,0.398,0.08h182.082V1220.423z
		 M130.109,608.75c35.81,0.262,71.299-23.643,83.092-57.599c2.968-8.532,4.379-17.518,4.379-26.53c0-4.222-0.309-8.451-0.913-12.645
		c0.603-4.193,0.913-8.423,0.913-12.645c0-9.012-1.412-17.999-4.379-26.53c-11.793-33.956-47.282-57.86-83.092-57.599v-96.589
		h96.589c-0.262,35.81,23.643,71.299,57.599,83.092c8.532,2.968,17.519,4.379,26.53,4.379c4.222,0,8.451-0.309,12.645-0.913
		c4.194,0.603,8.423,0.913,12.645,0.913c9.012,0,17.999-1.412,26.53-4.379c33.956-11.793,57.86-47.282,57.599-83.092h1162.813
		c-0.261,35.81,23.643,71.299,57.599,83.092c8.531,2.968,17.518,4.379,26.53,4.379c4.222,0,8.451-0.309,12.645-0.913
		c4.193,0.603,8.423,0.913,12.645,0.913c9.012,0,17.999-1.412,26.53-4.379c33.956-11.793,57.86-47.282,57.599-83.092h96.589v96.589
		c-35.81-0.262-71.299,23.643-83.091,57.599c-2.968,8.532-4.38,17.519-4.38,26.53c0,4.222,0.309,8.451,0.913,12.645
		c-0.604,4.193-0.913,8.423-0.913,12.645c0,9.012,1.412,17.999,4.38,26.53c11.793,33.956,47.282,57.86,83.091,57.599v422.617
		c-35.81-0.261-71.299,23.643-83.091,57.599c-2.968,8.531-4.38,17.519-4.38,26.53c0,4.222,0.309,8.451,0.913,12.645
		c-0.604,4.193-0.913,8.423-0.913,12.645c0,9.012,1.412,17.999,4.38,26.53c11.793,33.956,47.282,57.86,83.091,57.599v96.589h-96.589
		c0.262-35.81-23.643-71.299-57.599-83.091c-8.532-2.968-17.519-4.38-26.53-4.38c-4.222,0-8.451,0.309-12.645,0.913
		c-4.193-0.604-8.423-0.913-12.645-0.913c-9.012,0-17.999,1.412-26.53,4.38c-33.956,11.793-57.86,47.282-57.599,83.091H420.245
		c0.262-35.81-23.643-71.299-57.599-83.091c-8.532-2.968-17.519-4.38-26.53-4.38c-4.222,0-8.451,0.309-12.645,0.913
		c-4.193-0.604-8.423-0.913-12.645-0.913c-9.012,0-17.999,1.412-26.53,4.38c-33.956,11.793-57.86,47.282-57.599,83.091h-96.589
		v-96.589c35.81,0.262,71.299-23.643,83.092-57.599c2.968-8.532,4.379-17.519,4.379-26.53c0-4.222-0.309-8.451-0.913-12.645
		c0.603-4.193,0.913-8.423,0.913-12.645c0-9.011-1.412-17.999-4.379-26.53c-11.793-33.956-47.282-57.86-83.092-57.599V608.75z"/>
	<path d="M1001.651,20.112c0.601-0.035,1.207-0.053,1.817-0.053c16.96,0,30.759,13.8,30.759,30.759
		c0,16.96-13.8,30.759-30.759,30.759c-0.61,0-1.216-0.018-1.817-0.053c-0.601,0.035-1.207,0.053-1.817,0.053
		c-16.96,0-30.76-13.8-30.76-30.759c0-16.959,13.8-30.759,30.76-30.759C1000.444,20.059,1001.05,20.077,1001.651,20.112z
		 M999.834,1620.059c-16.96,0-30.76-13.8-30.76-30.759c0-16.96,13.8-30.759,30.76-30.759c0.61,0,1.216,0.018,1.817,0.053
		c0.601-0.035,1.207-0.053,1.817-0.053c16.96,0,30.759,13.8,30.759,30.759c0,16.959-13.8,30.759-30.759,30.759
		c-0.61,0-1.216-0.018-1.817-0.053C1001.05,1620.041,1000.444,1620.059,999.834,1620.059z M1001.651,69.184
		c0.598,0.059,1.204,0.089,1.817,0.089c10.177,0,18.456-8.278,18.456-18.456c0-10.177-8.278-18.455-18.456-18.455
		c-0.613,0-1.219,0.03-1.817,0.089c-0.598-0.059-1.204-0.089-1.817-0.089c-10.177,0-18.456,8.278-18.456,18.455
		c0,10.177,8.278,18.456,18.456,18.456C1000.447,69.273,1001.053,69.243,1001.651,69.184z M999.834,1570.844
		c-10.177,0-18.456,8.278-18.456,18.456c0,10.177,8.278,18.455,18.456,18.455c0.613,0,1.219-0.03,1.817-0.089
		c0.598,0.059,1.204,0.089,1.817,0.089c10.177,0,18.456-8.278,18.456-18.455c0-10.177-8.278-18.456-18.456-18.456
		c-0.613,0-1.219,0.03-1.817,0.089C1001.053,1570.875,1000.447,1570.844,999.834,1570.844z"/>
	<path d="M1812.758,671.568c0-1.634-0.649-3.196-1.803-4.349l-286.366-286.366c-1.153-1.153-2.715-1.803-4.349-1.803H483.063
		c-1.634,0-3.196,0.649-4.349,1.803L192.348,667.219c-1.153,1.153-1.803,2.715-1.803,4.349v296.981c0,1.634,0.649,3.196,1.803,4.349
		l286.366,286.366c1.153,1.153,2.715,1.803,4.349,1.803H1520.24c1.634,0,3.196-0.649,4.349-1.803l286.366-286.366
		c1.153-1.153,1.803-2.715,1.803-4.349V671.568z M202.849,674.115L485.61,391.355h1032.083l282.761,282.761v291.887
		l-282.761,282.761H485.61L202.849,966.002V674.115z"/>
</g>
</svg>
