<?xml version="1.0" encoding="utf-8"?>
<svg version="1.1" id="Layer_1" xmlns="http://www.w3.org/2000/svg" xmlns:xlink="http://www.w3.org/1999/xlink" x="0px" y="0px"
	 viewBox="0 0 3979.209 4000" enable-background="new 0 0 3979.209 4000" xml:space="preserve">
<g>
	<g>
		<path d="M264.98,1349.019c2.169-1.859,9.339-5.836,10.021-8.538c1.474-5.837-5.717-2.16-7.59-1.219
			c-24.824,12.476-42.585,9.214-61.64,11.462c-30.129,3.554-34.554,18.429-43.441,32.239c-17.534,27.248-37.161,13.771-36.917,3.38
			c-3.899,10.118,2.982,21.828,12.493,27.037c33.847,18.535,68.575-20.557,99.857-49.04c-15.558,39.336-55.546,58.578-75.539,87.726
			c-27.691,40.371-15.268,94.475,9.467,107.034c10.825,5.496,26.3,2.732,31.719-8.131c-13.637,9.243-32.588,0.983-34.875-15.52
			c-3.732-26.929,33.504-38.548,46.881-55.784c18.534-23.883,8.067-58.153,16.561-85.781
			C237.534,1375.811,250.561,1361.38,264.98,1349.019z"/>
		<path d="M3714.229,2650.981c-2.169,1.859-9.339,5.836-10.021,8.538c-1.474,5.837,5.717,2.16,7.59,1.219
			c24.824-12.476,42.585-9.215,61.64-11.462c30.129-3.553,34.554-18.429,43.441-32.239c17.533-27.248,37.161-13.771,36.917-3.38
			c3.899-10.118-2.982-21.828-12.493-27.037c-33.847-18.535-68.575,20.557-99.857,49.04c15.558-39.336,55.546-58.578,75.539-87.726
			c27.691-40.371,15.268-94.475-9.467-107.034c-10.824-5.496-26.3-2.732-31.719,8.131c13.637-9.243,32.588-0.982,34.875,15.52
			c3.732,26.929-33.504,38.548-46.881,55.785c-18.534,23.883-8.067,58.153-16.562,85.781
			C3741.676,2624.189,3728.649,2638.62,3714.229,2650.981z"/>
		<path d="M3711.467,1341.749c-2.177-1.85-9.363-5.796-10.057-8.496c-1.499-5.831,5.708-2.184,7.585-1.251
			c24.876,12.371,42.623,9.035,61.688,11.202c30.143,3.426,34.632,18.283,43.576,32.055c17.648,27.174,37.219,13.614,36.931,3.224
			c3.942,10.102-2.89,21.841-12.379,27.089c-33.768,18.677-68.661-20.268-100.063-48.618c15.724,39.27,55.793,58.343,75.909,87.406
			c27.861,40.254,15.667,94.41-9.015,107.073c-10.802,5.542-26.288,2.843-31.753-7.998c13.676,9.185,32.592,0.845,34.809-15.667
			c3.618-26.944-33.667-38.406-47.116-55.586c-18.635-23.804-8.312-58.119-16.923-85.71
			C3739.027,1368.425,3725.939,1354.048,3711.467,1341.749z"/>
		<path d="M267.742,2658.251c2.176,1.85,9.363,5.796,10.057,8.496c1.499,5.831-5.708,2.184-7.585,1.25
			c-24.876-12.371-42.623-9.035-61.688-11.202c-30.143-3.427-34.632-18.283-43.576-32.056
			c-17.648-27.174-37.219-13.614-36.931-3.224c-3.942-10.102,2.89-21.841,12.379-27.089c33.768-18.677,68.661,20.268,100.063,48.618
			c-15.724-39.27-55.793-58.343-75.909-87.406c-27.861-40.254-15.667-94.41,9.015-107.073c10.801-5.542,26.288-2.843,31.753,7.998
			c-13.676-9.186-32.592-0.845-34.809,15.667c-3.618,26.944,33.667,38.406,47.116,55.586c18.635,23.804,8.312,58.119,16.923,85.71
			C240.183,2631.575,253.27,2645.952,267.742,2658.251z"/>
		<path d="M436.377,1294.643c-16.065-37.905-38.707-49.206-54.874-68.038c-29.607-36.33-9.175-10.645-31.885-49.371
			c-0.976-1.665-1.851-3.698-0.369-4.967c1.643-1.408,6.215,1.184,7.878,1.756c18.934,15.902,5.908,25.71,49.96,49.673
			c4.442,3.173,7.471,8.716,13.169,9.625c-8.891-31.69,14.779-65.825-61.988-77.217c-14.635-2.172-30.991-6.589-42.374-16.095
			c-3.448-2.88-9.756-3.66-9.372-7.811c0.687-7.418,23.353,3.818,26.804,4.77c12.059,3.327,35.365,4.109,40.825,4.825
			c6.561,0.778,11.996,4.849,18.09,6.98c-0.412-0.144-2.36-9.477-2.821-10.61c-17.669-43.464-82.996-24.378-95.351-23.008
			c-4.777-0.467-9.506-1.377-14.199-2.49c-2.454-1.616-5.232-3.125-6.716-5.831c-1.968-8.201,7.06-6.974,11.008-6.812
			c14.055,0.573,17.319,1.277,40.588-3.637c8.609-1.818,17.593-0.815,26.247-2.563c-5.426-16.135-33.577-28.472-67.433-15.29
			c-5.79,2.254-11.336,6.645-17.312,7.836c-7.739,1.543-32.003,5.186-31.697-8.517c49.138-5.724,10.382,4.254,72.742-16.708
			c-34.527-24.107-87.821,13.375-96.902-5.776c5.458-1.511,11-1.634,16.482-3.043c2.531-0.65,25.156-9.184,26.271-7.54
			c-7.207-10.639-33.5-10.156-49.637-5.555c-35.256,5.224-69.07-88.665-71.199-81.136c-2.161,7.716,21.376,76.518,100.687,131.306
			c12.274,8.479,54.151,40.289,66.433,48.134c105.081,70.343,16.753,130.846,78.787,189.486
			c10.138,9.583,42.598,25.173,34.576,58.766c-2.753,11.531-9.986,14.53-20.425,15.344c-0.68,0.053-13.339,0.572-12.221,2.821
			c5.675,11.42,24.157,18.723,43.525-1.494C450.594,1374.358,450.73,1328.508,436.377,1294.643z"/>
		<path d="M3542.832,2705.357c16.065,37.905,38.707,49.207,54.874,68.038c29.607,36.33,9.175,10.645,31.885,49.371
			c0.976,1.665,1.851,3.698,0.369,4.968c-1.643,1.408-6.215-1.184-7.878-1.757c-18.934-15.902-5.908-25.71-49.96-49.673
			c-4.442-3.173-7.471-8.716-13.169-9.626c8.891,31.69-14.779,65.825,61.988,77.217c14.635,2.172,30.991,6.589,42.374,16.094
			c3.448,2.88,9.756,3.66,9.373,7.811c-0.688,7.418-23.353-3.818-26.804-4.77c-12.059-3.327-35.365-4.109-40.825-4.825
			c-6.561-0.778-11.996-4.849-18.09-6.98c0.412,0.144,2.36,9.477,2.821,10.61c17.669,43.464,82.996,24.379,95.352,23.008
			c4.777,0.467,9.506,1.377,14.199,2.49c2.454,1.616,5.232,3.125,6.716,5.831c1.968,8.201-7.061,6.973-11.008,6.813
			c-14.055-0.574-17.319-1.278-40.588,3.637c-8.609,1.818-17.593,0.815-26.248,2.563c5.426,16.135,33.577,28.472,67.433,15.29
			c5.79-2.254,11.336-6.645,17.312-7.836c7.739-1.542,32.003-5.186,31.697,8.517c-49.138,5.725-10.382-4.254-72.742,16.708
			c34.527,24.107,87.821-13.374,96.902,5.776c-5.458,1.511-11,1.635-16.482,3.043c-2.531,0.65-25.156,9.184-26.271,7.541
			c7.207,10.638,33.5,10.156,49.637,5.555c35.256-5.224,69.07,88.665,71.199,81.135c2.161-7.716-21.376-76.518-100.687-131.306
			c-12.274-8.479-54.151-40.289-66.433-48.134c-105.082-70.343-16.753-130.846-78.787-189.486
			c-10.138-9.583-42.598-25.173-34.577-58.766c2.754-11.531,9.986-14.53,20.425-15.344c0.68-0.053,13.339-0.572,12.221-2.821
			c-5.676-11.419-24.157-18.723-43.525,1.494C3528.615,2625.642,3528.479,2671.491,3542.832,2705.357z"/>
		<path d="M3539.843,1288.096c15.905-37.972,38.499-49.369,54.586-68.269c29.454-36.455,9.13-10.684,31.676-49.505
			c0.969-1.669,1.835-3.706,0.348-4.969c-1.649-1.401-6.21,1.21-7.871,1.79c-18.867,15.981-5.8,25.735-49.75,49.883
			c-4.428,3.191-7.434,8.747-13.129,9.681c8.757-31.727-15.057-65.762,61.662-77.478c14.625-2.233,30.963-6.72,42.305-16.273
			c3.436-2.894,9.74-3.701,9.339-7.85c-0.719-7.415-23.336,3.916-26.784,4.883c-12.044,3.377-35.348,4.258-40.804,4.997
			c-6.557,0.806-11.976,4.899-18.061,7.056c0.411-0.146,2.32-9.487,2.776-10.622c17.486-43.538,82.892-24.729,95.253-23.41
			c4.775-0.487,9.5-1.417,14.189-2.55c2.447-1.627,5.219-3.147,6.692-5.859c1.934-8.209-7.09-6.944-11.037-6.766
			c-14.052,0.633-17.314,1.35-40.603-3.466c-8.616-1.782-17.596-0.74-26.258-2.453c5.358-16.158,33.457-28.614,67.368-15.574
			c5.799,2.23,11.364,6.597,17.345,7.763c7.745,1.51,32.025,5.05,31.661-8.651c-49.161-5.517-10.364,4.297-72.812-16.401
			c34.425-24.253,87.877,13.004,96.877-6.185c-5.465-1.488-11.007-1.588-16.495-2.974c-2.533-0.64-25.195-9.078-26.302-7.429
			c7.162-10.669,33.457-10.297,49.613-5.765c35.278,5.075,68.695-88.955,70.856-81.435c2.194,7.707-21.053,76.607-100.132,131.73
			c-12.239,8.531-53.981,40.517-66.23,48.414c-104.784,70.786-16.2,130.915-77.986,189.817
			c-10.097,9.626-42.491,25.353-34.328,58.912c2.802,11.52,10.047,14.487,20.49,15.258c0.681,0.05,13.342,0.515,12.233,2.77
			c-5.627,11.443-24.078,18.825-43.531-1.31C3525.962,1367.871,3525.633,1322.022,3539.843,1288.096z"/>
		<path d="M439.367,2711.904c-15.905,37.972-38.499,49.369-54.586,68.269c-29.454,36.455-9.13,10.684-31.676,49.505
			c-0.969,1.668-1.835,3.706-0.348,4.969c1.649,1.401,6.21-1.21,7.871-1.79c18.867-15.981,5.8-25.735,49.75-49.883
			c4.428-3.191,7.434-8.747,13.129-9.681c-8.757,31.727,15.057,65.762-61.662,77.478c-14.625,2.233-30.963,6.72-42.305,16.273
			c-3.436,2.894-9.74,3.701-9.339,7.85c0.719,7.415,23.336-3.916,26.784-4.883c12.045-3.377,35.348-4.258,40.804-4.997
			c6.557-0.806,11.976-4.899,18.061-7.056c-0.411,0.146-2.32,9.487-2.776,10.622c-17.486,43.538-82.892,24.728-95.254,23.41
			c-4.775,0.487-9.5,1.417-14.189,2.55c-2.447,1.627-5.218,3.147-6.692,5.86c-1.933,8.209,7.09,6.944,11.037,6.766
			c14.052-0.633,17.314-1.35,40.603,3.466c8.616,1.782,17.596,0.74,26.258,2.452c-5.358,16.158-33.456,28.614-67.367,15.574
			c-5.799-2.23-11.364-6.597-17.345-7.763c-7.745-1.51-32.025-5.051-31.661,8.651c49.161,5.517,10.364-4.297,72.812,16.401
			c-34.425,24.253-87.877-13.004-96.877,6.185c5.465,1.488,11.007,1.588,16.495,2.973c2.533,0.64,25.195,9.078,26.302,7.43
			c-7.162,10.669-33.457,10.297-49.613,5.764c-35.278-5.075-68.695,88.955-70.856,81.435c-2.194-7.707,21.053-76.607,100.132-131.73
			c12.239-8.531,53.981-40.517,66.23-48.414c104.784-70.786,16.2-130.915,77.986-189.817c10.097-9.626,42.491-25.353,34.328-58.912
			c-2.802-11.52-10.047-14.487-20.49-15.258c-0.681-0.05-13.341-0.515-12.233-2.77c5.627-11.444,24.078-18.825,43.531,1.31
			C453.247,2632.129,453.577,2677.978,439.367,2711.904z"/>
		<path d="M253.615,1409.123c-9.614,27.887,1.716,72.739,38.493,70.63c24.413-1.4,24.799-25.932,12.238-29.483
			c5.549,7.132-4.167,21.566-20.091,12.405c-24.033-13.826-16.498-46.21-4.345-65.214c13.147-20.558,42.292-46.156,55.222-102.066
			c1.586-6.856,6.145-18.373,0.89-23.971C307.827,1358.151,270.539,1360.032,253.615,1409.123z"/>
		<path d="M3725.594,2590.877c9.614-27.887-1.716-72.74-38.493-70.63c-24.413,1.4-24.799,25.932-12.238,29.483
			c-5.549-7.132,4.167-21.565,20.091-12.405c24.033,13.826,16.499,46.21,4.344,65.214c-13.147,20.558-42.292,46.156-55.222,102.066
			c-1.586,6.856-6.146,18.373-0.89,23.971C3671.383,2641.85,3708.671,2639.968,3725.594,2590.877z"/>
		<path d="M3723.086,1401.804c9.731,27.846-1.409,72.746-38.195,70.792c-24.419-1.297-24.908-25.827-12.363-29.431
			c-5.518,7.155,4.259,21.548,20.143,12.32c23.975-13.928,16.303-46.279,4.069-65.232c-13.234-20.502-42.486-45.977-55.652-101.832
			c-1.615-6.849-6.223-18.347-0.991-23.967C3668.659,1351.061,3705.955,1352.784,3723.086,1401.804z"/>
		<path d="M256.123,2598.196c-9.731-27.846,1.409-72.746,38.195-70.792c24.419,1.297,24.908,25.827,12.362,29.431
			c5.518-7.155-4.258-21.548-20.143-12.32c-23.975,13.927-16.303,46.279-4.069,65.232c13.234,20.502,42.486,45.977,55.652,101.833
			c1.615,6.849,6.223,18.347,0.991,23.967C310.55,2648.939,273.254,2647.216,256.123,2598.196z"/>
		<path d="M189.861,1322.136c30.028-15.404,41.884-48.791,50.274-58.61c10.806-12.647,23.675-8.9,27.188-1.691
			c2.362,4.847-0.149,11.758-5.385,13.047c14.743,1.725,23.052-20.29,6.819-30.813c-6.085-3.945-13.948-4.576-20.95-2.689
			c-9.892,2.667-16.261,9.329-23.038,16.513c-11.179,11.851-51.825,66.713-95.258,32.553
			c-25.037-19.692-27.451-56.142-42.605-82.429c-10.201-17.697-26.675-29.36-43.739-24.36c-23.791,6.971-19.388,37.018-0.934,37.914
			c-4.449-3.039-7-8.645-6.37-13.996c1.716-14.568,21.338-18.722,32.257-3.138c12.342,17.615,12.202,97.668,64.639,119.821
			C150.562,1331.779,172.063,1331.267,189.861,1322.136z"/>
		<path d="M3789.348,2677.864c-30.028,15.405-41.884,48.791-50.273,58.611c-10.806,12.646-23.675,8.9-27.188,1.691
			c-2.362-4.847,0.149-11.758,5.385-13.046c-14.743-1.725-23.052,20.29-6.819,30.813c6.085,3.944,13.948,4.576,20.95,2.688
			c9.892-2.667,16.261-9.329,23.038-16.513c11.179-11.851,51.825-66.713,95.259-32.553c25.037,19.691,27.451,56.142,42.604,82.429
			c10.201,17.697,26.675,29.36,43.739,24.36c23.792-6.971,19.388-37.018,0.934-37.914c4.449,3.039,7,8.645,6.37,13.996
			c-1.716,14.568-21.338,18.722-32.257,3.138c-12.342-17.615-12.202-97.668-64.639-119.821
			C3828.647,2668.221,3807.146,2668.733,3789.348,2677.864z"/>
		<path d="M3786.472,1314.549c-30.093-15.278-42.089-48.614-50.521-58.398c-10.859-12.601-23.712-8.8-27.195-1.576
			c-2.342,4.857,0.199,11.757,5.44,13.024c-14.735,1.787-23.137-20.192-6.948-30.784c6.068-3.97,13.929-4.635,20.938-2.777
			c9.903,2.625,16.301,9.26,23.107,16.415c11.229,11.804,52.106,66.493,95.395,32.151c24.954-19.797,27.214-56.257,42.256-82.608
			c10.127-17.74,26.551-29.473,43.636-24.545c23.821,6.871,19.544,36.936,1.094,37.91c4.436-3.058,6.964-8.675,6.311-14.023
			c-1.778-14.56-21.417-18.632-32.27-3.002c-12.268,17.667-11.79,97.718-64.133,120.093
			C3825.812,1324.026,3804.308,1323.604,3786.472,1314.549z"/>
		<path d="M192.737,2685.451c30.093,15.278,42.089,48.614,50.52,58.398c10.859,12.601,23.712,8.801,27.195,1.576
			c2.342-4.857-0.199-11.757-5.44-13.023c14.735-1.787,23.137,20.192,6.949,30.783c-6.068,3.97-13.929,4.635-20.939,2.777
			c-9.903-2.625-16.3-9.26-23.107-16.415c-11.229-11.804-52.106-66.493-95.395-32.151c-24.954,19.797-27.214,56.257-42.256,82.608
			c-10.127,17.74-26.551,29.473-43.636,24.545c-23.821-6.871-19.544-36.936-1.094-37.91c-4.436,3.058-6.964,8.675-6.311,14.023
			c1.778,14.56,21.417,18.632,32.27,3.002c12.268-17.667,11.79-97.718,64.133-120.093
			C153.398,2675.974,174.901,2676.396,192.737,2685.451z"/>
		<path d="M241.943,1288.454c5.264,22.887,35.547,20.899,52.283,13.82c47.409-20.053,59.991-104.077-36.779-170.692
			c-74.969-51.608-131.936-105.755-178.256-291.511c-1.075-4.313-1.812-16.179-6.003-17.921c0,0,17.299,185.589,103.698,276.794
			c41.98,44.316,70.305,54.738,95.323,81.329c55.219,58.642,20.036,112.306-12.092,107.415c-4.765-0.575-9.769-4.286-9.518-9.53
			c0.742-3.388,2.394-6.501,3.676-9.709C244.984,1269.298,240.015,1280.073,241.943,1288.454z"/>
		<path d="M3737.267,2711.546c-5.263-22.887-35.547-20.899-52.282-13.82c-47.408,20.053-59.991,104.077,36.779,170.692
			c74.969,51.608,131.936,105.756,178.256,291.511c1.076,4.313,1.812,16.178,6.003,17.921c0,0-17.3-185.589-103.698-276.794
			c-41.98-44.316-70.305-54.738-95.323-81.329c-55.219-58.642-20.036-112.306,12.092-107.415c4.765,0.575,9.769,4.286,9.518,9.53
			c-0.742,3.388-2.395,6.501-3.676,9.709C3734.226,2730.702,3739.194,2719.927,3737.267,2711.546z"/>
		<path d="M3734.249,1281.086c-5.167,22.909-35.459,21.049-52.224,14.041c-47.493-19.853-60.429-103.823,36.058-170.846
			c74.75-51.924,131.489-106.311,177.024-292.261c1.057-4.317,1.743-16.186,5.928-17.946c0,0-16.516,185.66-102.529,277.229
			c-41.793,44.492-70.074,55.034-94.979,81.73c-54.971,58.874-19.562,112.39,12.545,107.363c4.762-0.595,9.751-4.327,9.478-9.57
			c-0.757-3.385-2.422-6.491-3.717-9.694C3731.127,1261.944,3736.141,1272.698,3734.249,1281.086z"/>
		<path d="M244.96,2718.914c5.167-22.909,35.459-21.049,52.224-14.041c47.493,19.853,60.429,103.823-36.058,170.846
			c-74.75,51.924-131.489,106.311-177.024,292.261c-1.057,4.317-1.743,16.186-5.928,17.946c0,0,16.516-185.66,102.529-277.229
			c41.793-44.492,70.074-55.034,94.979-81.73c54.971-58.874,19.562-112.39-12.545-107.363c-4.762,0.595-9.751,4.327-9.478,9.57
			c0.757,3.385,2.422,6.491,3.717,9.694C248.082,2738.056,243.068,2727.302,244.96,2718.914z"/>
		<path d="M220.075,1250.91c0,0,15.317-19.763,9.022-46.592c-7.037-29.987-40.502-54.791-70.325-43.306
			c-14.917,5.745-25.593,19.759-40.944,24.494c-23.489,7.245-34.932-13.602-26.627-24.169c7.574-9.638,0.328-10.382-3.848-8.07
			c-16.509,9.14-16.226,35.331,4.004,45.793c24.282,12.557,48.445-10.796,62.127-14.44
			C174.72,1178.966,212.789,1191.427,220.075,1250.91z"/>
		<path d="M3759.135,2749.09c0,0-15.317,19.763-9.022,46.592c7.037,29.987,40.502,54.791,70.325,43.306
			c14.917-5.745,25.593-19.759,40.944-24.494c23.489-7.245,34.932,13.602,26.626,24.169c-7.574,9.637-0.328,10.382,3.848,8.07
			c16.509-9.14,16.226-35.331-4.004-45.793c-24.282-12.557-48.445,10.795-62.127,14.439
			C3804.49,2821.034,3766.42,2808.573,3759.135,2749.09z"/>
		<path d="M3755.958,1243.451c0,0-15.401-19.699-9.218-46.553c6.91-30.017,40.27-54.961,70.142-43.602
			c14.941,5.682,25.676,19.651,41.047,24.321c23.52,7.146,34.874-13.749,26.524-24.281c-7.615-9.605-0.372-10.381,3.814-8.086
			c16.547,9.07,16.375,35.262-3.811,45.81c-24.229,12.66-48.49-10.591-62.188-14.177
			C3801.009,1171.316,3762.993,1183.938,3755.958,1243.451z"/>
		<path d="M223.251,2756.55c0,0,15.401,19.698,9.218,46.553c-6.91,30.017-40.27,54.961-70.142,43.602
			c-14.941-5.682-25.676-19.651-41.046-24.321c-23.52-7.146-34.874,13.749-26.524,24.281c7.615,9.605,0.372,10.381-3.814,8.086
			c-16.547-9.07-16.375-35.262,3.81-45.81c24.228-12.659,48.49,10.591,62.188,14.177
			C178.2,2828.684,216.217,2816.062,223.251,2756.55z"/>
		<path d="M195.995,1252.123c0.009,0.016,1.785-3.524,1.891-3.978c0.427-1.817,0.345-3.703-0.174-5.49
			c-11.309-38.994-63.804-19.391-51.109,13.933c6.026,15.82,24.99,20.665,36.382,10.626
			C142.018,1262.195,168.958,1206.097,195.995,1252.123z"/>
		<path d="M3783.214,2747.877c-0.009-0.016-1.785,3.523-1.891,3.978c-0.427,1.817-0.345,3.703,0.174,5.49
			c11.309,38.994,63.804,19.391,51.109-13.934c-6.026-15.82-24.99-20.665-36.383-10.626
			C3837.191,2737.805,3810.251,2793.903,3783.214,2747.877z"/>
		<path d="M3780.043,1244.562c-0.009,0.016-1.8-3.516-1.908-3.97c-0.434-1.815-0.36-3.701,0.15-5.491
			c11.144-39.041,63.721-19.66,51.168,13.718c-5.96,15.845-24.903,20.77-36.337,10.779
			C3834.062,1254.406,3806.886,1198.422,3780.043,1244.562z"/>
		<path d="M199.166,2755.438c0.009-0.016,1.8,3.516,1.908,3.97c0.434,1.815,0.36,3.701-0.15,5.491
			c-11.144,39.041-63.721,19.66-51.168-13.718c5.96-15.845,24.903-20.77,36.337-10.779
			C145.148,2745.594,172.324,2801.578,199.166,2755.438z"/>
		<path d="M205.936,1244.554c0-21.326-11.533-34.902-28.061-40.079c-21.762-6.817-44.209,4.499-60.765,12.661
			c-5.245,2.586-5.574,4.579-4.35,8.727c8.987,30.451,10.375,36.645,14.971,44.005c11.935,19.114,37.826,24.215,56.131,10.814
			c-37.961,6.563-50.655-12.448-57.944-46.787c-1.618-7.622,0.353-9.475,4.896-11.34c19.089-7.836,40.681-12.985,58.755-2.374
			C198.337,1225.328,205.051,1234.425,205.936,1244.554z"/>
		<path d="M3773.273,2755.446c0,21.325,11.533,34.902,28.061,40.079c21.762,6.817,44.209-4.499,60.765-12.661
			c5.245-2.586,5.574-4.579,4.35-8.727c-8.987-30.451-10.375-36.645-14.971-44.006c-11.935-19.114-37.826-24.215-56.131-10.814
			c37.961-6.563,50.655,12.448,57.944,46.787c1.618,7.622-0.353,9.475-4.896,11.34c-19.089,7.836-40.681,12.985-58.755,2.374
			C3780.872,2774.672,3774.158,2765.575,3773.273,2755.446z"/>
		<path d="M3770.07,1237.035c-0.09-21.325,11.385-34.95,27.892-40.197c21.733-6.909,44.227,4.313,60.818,12.405
			c5.256,2.564,5.593,4.556,4.386,8.708c-8.859,30.488-10.22,36.688-14.785,44.068c-11.854,19.164-37.724,24.375-56.084,11.051
			c37.989,6.403,50.602-12.661,57.746-47.031c1.586-7.629-0.393-9.474-4.944-11.319c-19.122-7.755-40.736-12.813-58.765-2.126
			C3777.588,1217.777,3770.912,1226.903,3770.07,1237.035z"/>
		<path d="M209.14,2762.965c0.09,21.325-11.385,34.95-27.892,40.197c-21.733,6.909-44.227-4.313-60.818-12.405
			c-5.256-2.564-5.593-4.556-4.386-8.708c8.859-30.488,10.221-36.688,14.785-44.068c11.854-19.164,37.724-24.375,56.085-11.051
			c-37.988-6.402-50.602,12.661-57.746,47.031c-1.586,7.629,0.393,9.473,4.944,11.319c19.122,7.755,40.736,12.813,58.765,2.126
			C201.622,2782.223,208.297,2773.097,209.14,2762.965z"/>
		<path d="M46.55,1080.92c3.073,14.607,26.754,23.75,46.769-1.464c28.667-36.114,11.446-64.175-6.778-120.397
			c-27.913,73.069-24.731,61.677-11.825,95.237C86.689,1085.427,58.051,1095.18,46.55,1080.92z"/>
		<path d="M3932.659,2919.08c-3.073-14.607-26.754-23.75-46.769,1.464c-28.667,36.115-11.446,64.175,6.777,120.397
			c27.913-73.069,24.731-61.677,11.825-95.237C3892.521,2914.573,3921.159,2904.82,3932.659,2919.08z"/>
		<path d="M3928.764,1072.73c-3.011,14.62-26.654,23.862-46.774-1.267c-28.819-35.993-11.717-64.126,6.27-120.424
			c28.221,72.95,24.991,61.572,12.227,95.186C3888.645,1077.406,3917.324,1087.039,3928.764,1072.73z"/>
		<path d="M50.445,2927.27c3.011-14.62,26.654-23.863,46.774,1.267c28.819,35.993,11.716,64.126-6.27,120.424
			c-28.221-72.95-24.991-61.572-12.226-95.186C90.564,2922.594,61.885,2912.961,50.445,2927.27z"/>
		<path d="M396.591,1048.442c-0.62,5.931,4.847,11.313,10.77,12.005c16.338,1.909,32.584-22.978,21.118-46.724
			c-28.531-59.089-130.044-10.571-153.184-6.8c-16.42,2.675-33.273,2.332-49.837,3.476c58.944,21.516,102.511,0.258,125.778-5.172
			c55.173-12.877,72.066,26.34,61.021,40.61C408.636,1050.514,401.115,1052.254,396.591,1048.442z"/>
		<path d="M3582.619,2951.558c0.62-5.93-4.847-11.313-10.77-12.004c-16.337-1.909-32.584,22.978-21.118,46.724
			c28.531,59.089,130.044,10.571,153.184,6.8c16.42-2.675,33.273-2.332,49.837-3.476c-58.944-21.516-102.511-0.258-125.778,5.172
			c-55.173,12.877-72.066-26.34-61.021-40.61C3570.573,2949.486,3578.095,2947.746,3582.619,2951.558z"/>
		<path d="M3578.59,1041.73c0.646,5.928-4.799,11.333-10.719,12.05c-16.329,1.978-32.681-22.841-21.315-46.635
			c28.281-59.209,129.999-11.119,153.154-7.446c16.431,2.606,33.282,2.191,49.851,3.265c-58.853,21.764-102.509,0.691-125.798-4.642
			c-55.227-12.644-71.954,26.644-60.85,40.867C3566.553,1043.852,3574.082,1045.56,3578.59,1041.73z"/>
		<path d="M400.62,2958.271c-0.645-5.928,4.799-11.333,10.719-12.05c16.329-1.978,32.681,22.841,21.315,46.635
			c-28.281,59.209-129.999,11.119-153.154,7.447c-16.431-2.606-33.282-2.191-49.851-3.265
			c58.852-21.764,102.509-0.691,125.798,4.641c55.227,12.645,71.954-26.644,60.849-40.867
			C412.656,2956.148,405.127,2954.44,400.62,2958.271z"/>
		<path d="M327.759,844.831c-52.102-42.838-43.925-92.325-21.029-112.689c11.912-10.595,28.523-15.001,39.755-26.315
			c16.743-16.865,19.08-55.992-9.028-63.062c-10.671-2.684-22.775,1.787-29.139,10.763c28.093-11.67,54.486,32.194,10.299,51.079
			c-13.025,5.567-55.543,12.238-62.046,58.729C250.975,803.341,282.322,842.151,327.759,844.831z"/>
		<path d="M3651.45,3155.169c52.102,42.838,43.925,92.325,21.029,112.689c-11.912,10.595-28.523,15.001-39.755,26.315
			c-16.743,16.865-19.08,55.992,9.028,63.062c10.671,2.684,22.775-1.787,29.139-10.763c-28.093,11.67-54.486-32.194-10.299-51.079
			c13.025-5.567,55.543-12.239,62.046-58.729C3728.235,3196.659,3696.887,3157.849,3651.45,3155.169z"/>
		<path d="M3646.562,837.829c51.92-43.058,43.535-92.51,20.553-112.777c-11.957-10.544-28.586-14.88-39.865-26.147
			c-16.814-16.795-19.316-55.911,8.762-63.099c10.66-2.729,22.782,1.691,29.184,10.64c-28.142-11.551-54.349,32.424-10.083,51.122
			c13.048,5.512,55.594,12.004,62.293,58.466C3723.17,796.016,3691.987,834.958,3646.562,837.829z"/>
		<path d="M332.648,3162.171c-51.92,43.058-43.535,92.51-20.553,112.777c11.957,10.544,28.586,14.88,39.866,26.147
			c16.814,16.795,19.316,55.911-8.762,63.099c-10.66,2.729-22.782-1.691-29.184-10.64c28.142,11.551,54.349-32.424,10.083-51.122
			c-13.048-5.512-55.595-12.004-62.293-58.466C256.039,3203.984,287.222,3165.042,332.648,3162.171z"/>
		<path d="M410.471,763.218c-4.118-9.03-21.82-30.064-22.852-31.262c-24.714-28.701-17.395-26.053-48.437-1.325
			c-24.95,19.875-43.081,40.642-27.986,73.294c5.701,12.331,15.619,22.427,27.101,29.686c-4.553-16.653-60.497-41.671,17.771-97.908
			c6.325-4.545,9.685-4.897,16.459,1.885c14.613,14.629,41.459,40.714,20.096,74.337c-6.129,9.646-15.265,17.179-25.453,22.359
			c5.253,0.776,10.479-1.484,15.021-4.237C403.419,817.183,421.29,786.943,410.471,763.218z"/>
		<path d="M3568.739,3236.782c4.118,9.03,21.82,30.064,22.852,31.262c24.714,28.701,17.395,26.053,48.437,1.325
			c24.95-19.875,43.081-40.642,27.986-73.294c-5.701-12.331-15.619-22.426-27.101-29.686c4.553,16.653,60.497,41.671-17.771,97.908
			c-6.325,4.545-9.685,4.897-16.459-1.885c-14.613-14.629-41.459-40.714-20.096-74.337c6.129-9.646,15.265-17.179,25.453-22.359
			c-5.253-0.776-10.479,1.484-15.021,4.237C3575.791,3182.817,3557.919,3213.057,3568.739,3236.782z"/>
		<path d="M3563.506,756.566c4.08-9.047,21.693-30.156,22.719-31.358c24.593-28.805,17.285-26.126,48.431-1.529
			c25.033,19.77,43.252,40.46,28.295,73.176c-5.649,12.355-15.524,22.492-26.976,29.801c4.483-16.672,60.321-41.926-18.184-97.832
			c-6.344-4.518-9.706-4.856-16.451,1.954c-14.551,14.691-41.287,40.888-19.782,74.421c6.17,9.62,15.337,17.115,25.547,22.251
			c-5.25,0.798-10.486-1.44-15.039-4.173C3570.786,810.501,3552.787,780.337,3563.506,756.566z"/>
		<path d="M415.703,3243.434c-4.08,9.047-21.693,30.156-22.72,31.358c-24.592,28.805-17.285,26.126-48.431,1.529
			c-25.033-19.77-43.252-40.46-28.295-73.176c5.649-12.355,15.524-22.492,26.976-29.801c-4.483,16.673-60.321,41.926,18.184,97.833
			c6.344,4.518,9.706,4.856,16.451-1.954c14.551-14.691,41.287-40.888,19.782-74.421c-6.17-9.62-15.337-17.115-25.547-22.251
			c5.25-0.798,10.486,1.44,15.039,4.173C408.423,3189.499,426.422,3219.663,415.703,3243.434z"/>
		<path d="M399.159,683.44c-7.75-7.773-16.09-15.51-20.244-25.67c-4.153-10.16-2.676-23.623,6.479-29.679
			c11.236-7.432,26.588,0.112,27.385,13.702c5.053-8.452,1.821-20.424-6.165-26.184c-14.568-10.508-38.898-1.676-43.638,23.537
			c-6.497,34.554,27.56,67.933,44.19,90.127c37.065,49.467,24.314,87.823-15.777,107.622
			c-28.006,13.831-59.947,13.798-79.408,23.901c-24.94,12.948-24.313,36.78-12.762,45.992c7.394,5.897,20.013,4.58,24.727-3.619
			c-8.931,6.122-21.11-0.837-20.378-11.634c1.765-26.027,55.479-16.124,78.646-18.998c66.83-8.291,102.614-89.659,56.105-143.024
			C425.068,714.31,413.533,697.857,399.159,683.44z"/>
		<path d="M3580.051,3316.56c7.75,7.773,16.09,15.51,20.243,25.67c4.153,10.16,2.676,23.623-6.479,29.679
			c-11.236,7.432-26.588-0.111-27.385-13.702c-5.053,8.452-1.821,20.424,6.166,26.184c14.568,10.508,38.898,1.676,43.638-23.537
			c6.497-34.554-27.56-67.933-44.19-90.127c-37.064-49.467-24.313-87.823,15.777-107.622c28.006-13.831,59.947-13.798,79.408-23.901
			c24.94-12.948,24.313-36.78,12.762-45.992c-7.394-5.897-20.013-4.58-24.727,3.619c8.931-6.122,21.11,0.836,20.378,11.634
			c-1.765,26.027-55.479,16.124-78.646,18.998c-66.83,8.291-102.614,89.659-56.104,143.024
			C3554.141,3285.69,3565.677,3302.143,3580.051,3316.56z"/>
		<path d="M3574.482,676.742c7.717-7.805,16.025-15.578,20.135-25.755c4.11-10.177,2.576-23.634-6.604-29.651
			c-11.267-7.385-26.588,0.224-27.327,13.817c-5.089-8.431-1.907-20.416,6.055-26.21c14.523-10.569,38.89-1.84,43.737,23.353
			c6.642,34.526-27.273,68.049-43.809,90.313c-36.855,49.623-23.943,87.924,16.231,107.554
			c28.064,13.713,60.005,13.545,79.508,23.566c24.994,12.843,24.467,36.677,12.956,45.938c-7.369,5.928-19.993,4.664-24.742-3.515
			c8.957,6.085,21.106-0.926,20.328-11.72c-1.875-26.019-55.546-15.89-78.726-18.666c-66.864-8.009-102.992-89.226-56.708-142.786
			C3548.703,707.721,3560.169,691.219,3574.482,676.742z"/>
		<path d="M404.728,3323.258c-7.717,7.805-16.025,15.578-20.135,25.755c-4.11,10.177-2.576,23.635,6.604,29.651
			c11.267,7.385,26.588-0.224,27.327-13.817c5.089,8.431,1.907,20.416-6.055,26.21c-14.524,10.569-38.89,1.84-43.737-23.353
			c-6.642-34.526,27.273-68.049,43.809-90.313c36.855-49.623,23.943-87.924-16.231-107.554
			c-28.064-13.713-60.005-13.545-79.508-23.566c-24.994-12.843-24.467-36.677-12.956-45.938c7.369-5.928,19.993-4.665,24.742,3.514
			c-8.957-6.085-21.106,0.926-20.328,11.72c1.874,26.02,55.546,15.89,78.726,18.666c66.864,8.009,102.992,89.226,56.707,142.786
			C430.506,3292.279,419.041,3308.781,404.728,3323.258z"/>
		<path d="M361.137,821.21c39.596-4.389,33.608-64.459-5.455-63.431c-34.263,0.902-43.122,48.676-11.401,61.766
			c-25.139-51.077,31.027-49.528,26.265-16.415C369.568,809.939,365.916,816.183,361.137,821.21z"/>
		<path d="M3618.072,3178.79c-39.596,4.389-33.608,64.459,5.455,63.431c34.264-0.902,43.123-48.676,11.401-61.766
			c25.138,51.077-31.027,49.528-26.265,16.415C3609.642,3190.061,3613.294,3183.817,3618.072,3178.79z"/>
		<path d="M3613.084,814.35c-39.615-4.221-33.88-64.317,5.188-63.453c34.267,0.757,43.328,48.493,11.661,61.717
			c24.923-51.183-31.236-49.397-26.334-16.304C3604.606,803.114,3608.285,809.343,3613.084,814.35z"/>
		<path d="M366.125,3185.65c39.615,4.221,33.88,64.317-5.188,63.453c-34.267-0.757-43.327-48.493-11.661-61.717
			c-24.923,51.183,31.236,49.397,26.334,16.304C374.603,3196.886,370.925,3190.657,366.125,3185.65z"/>
		<path d="M254.725,600.33c-0.89-0.723,1.952-12.274,1.943-14.37c-0.125-28.322-13.571-28.608-24.908-39.618
			c-12.208-11.856-25.209-38.438-20.144-55.562c2.562,2.059,3.7,5.148,4.585,8.153c8.074,34.152,17.236,39.365,45.985,56.844
			c2.08-5.118-2.614-24.636-5.004-29.895c-8.988-19.773-34.369-22.077-34.766-50.992c-0.081-5.927,1.625-11.699,1.625-11.699
			c7.01,12.916,8.923,31.414,21.552,40.806c2.755,2.049,13.066,9.002,15.401,7.357c1.197-0.843,5.275-13.265-3.815-28.763
			c-7.893-13.459-22.129-26.695-23.515-43.031c-0.295-3.473,0.071-11.581,3.361-13.86c6.213-4.305,4.126,6.374,6.908,15.996
			c3.061,10.586,9.221,19.895,19.438,24.553c4.206-12.888-12.611-31.086-18.492-61.173c-1.219-6.236-0.602-14.181-3.25-19.962
			c0.757,1.66-1.755,6.969-9.425,26.725c0,1.207-11.287,28.915-13.305,33.048c-11.854,24.271-16.565,48.716-22.799,61.06
			c-15.04,29.783-15.82,66.471-8.731,85.395c15.29,40.817,50.843,65.97,61.431,69.695c-0.49-0.172-0.139-25.181-0.304-27.827
			c-2.55-40.734-71.414-84.77-49.141-111.087c1.025-1.211,5.239,12.74,5.465,13.577C208.927,550.895,213.259,563.356,254.725,600.33
			z"/>
		<path d="M3724.484,3399.67c0.89,0.723-1.952,12.274-1.943,14.37c0.125,28.322,13.571,28.608,24.908,39.618
			c12.208,11.856,25.209,38.438,20.144,55.562c-2.562-2.059-3.7-5.148-4.585-8.153c-8.074-34.152-17.236-39.365-45.985-56.844
			c-2.08,5.118,2.614,24.636,5.004,29.895c8.988,19.773,34.369,22.078,34.766,50.992c0.081,5.927-1.625,11.699-1.625,11.699
			c-7.01-12.916-8.923-31.414-21.552-40.806c-2.755-2.049-13.066-9.002-15.401-7.357c-1.197,0.843-5.275,13.264,3.814,28.763
			c7.894,13.459,22.129,26.695,23.515,43.031c0.295,3.473-0.071,11.581-3.361,13.86c-6.213,4.305-4.126-6.374-6.908-15.996
			c-3.061-10.586-9.22-19.895-19.438-24.553c-4.206,12.888,12.611,31.086,18.492,61.174c1.219,6.236,0.602,14.181,3.25,19.962
			c-0.757-1.66,1.755-6.969,9.426-26.725c0-1.207,11.287-28.915,13.305-33.047c11.854-24.271,16.565-48.716,22.799-61.061
			c15.04-29.783,15.82-66.471,8.731-85.395c-15.29-40.817-50.843-65.97-61.431-69.695c0.49,0.172,0.138,25.181,0.304,27.827
			c2.55,40.734,71.414,84.77,49.141,111.087c-1.025,1.211-5.239-12.74-5.465-13.577
			C3770.283,3449.104,3765.95,3436.644,3724.484,3399.67z"/>
		<path d="M3718.563,593.023c0.887-0.727-2.004-12.266-2.004-14.362c0.006-28.322,13.45-28.665,24.74-39.723
			c12.158-11.908,25.047-38.544,19.909-55.646c-2.553,2.07-3.678,5.164-4.551,8.172c-7.93,34.185-17.07,39.437-45.745,57.038
			c-2.102-5.11,2.51-24.647,4.878-29.915c8.904-19.811,34.276-22.222,34.551-51.138c0.056-5.928-1.675-11.692-1.675-11.692
			c-6.956,12.946-8.79,31.451-21.379,40.896c-2.746,2.06-13.028,9.057-15.37,7.422c-1.201-0.838-5.331-13.242,3.693-28.779
			c7.836-13.492,22.016-26.788,23.333-43.13c0.28-3.474-0.12-11.581-3.419-13.846c-6.231-4.279-4.099,6.392-6.841,16.025
			c-3.017,10.599-9.136,19.934-19.334,24.635c-4.26-12.871,12.479-31.139,18.233-61.251c1.193-6.241,0.542-14.184,3.166-19.975
			c-0.75,1.663,1.784,6.961,9.538,26.685c0.005,1.207,11.409,28.867,13.444,32.991c11.957,24.221,16.77,48.645,23.056,60.964
			c15.166,29.719,16.1,66.404,9.091,85.357c-15.118,40.881-50.565,66.184-61.137,69.954c0.489-0.174,0.032-25.181,0.187-27.828
			c2.378-40.745,71.056-85.071,48.672-111.293c-1.03-1.207-5.185,12.762-5.408,13.6
			C3764.153,543.395,3759.873,555.874,3718.563,593.023z"/>
		<path d="M260.646,3406.977c-0.887,0.727,2.004,12.266,2.004,14.362c-0.005,28.322-13.45,28.665-24.74,39.723
			c-12.158,11.908-25.047,38.544-19.909,55.646c2.554-2.07,3.678-5.164,4.551-8.173c7.93-34.186,17.07-39.437,45.745-57.038
			c2.101,5.11-2.51,24.647-4.878,29.916c-8.904,19.811-34.276,22.222-34.551,51.138c-0.056,5.927,1.675,11.692,1.675,11.692
			c6.956-12.946,8.79-31.451,21.379-40.896c2.746-2.06,13.028-9.057,15.37-7.421c1.201,0.838,5.331,13.242-3.693,28.779
			c-7.837,13.492-22.016,26.788-23.333,43.13c-0.28,3.474,0.12,11.581,3.419,13.846c6.231,4.278,4.099-6.392,6.841-16.025
			c3.017-10.599,9.137-19.934,19.334-24.635c4.26,12.87-12.48,31.139-18.234,61.251c-1.193,6.241-0.542,14.184-3.165,19.975
			c0.75-1.663-1.784-6.961-9.538-26.685c-0.005-1.207-11.409-28.867-13.444-32.991c-11.957-24.221-16.77-48.645-23.056-60.964
			c-15.166-29.719-16.1-66.404-9.091-85.357c15.118-40.881,50.564-66.184,61.137-69.954c-0.489,0.174-0.032,25.181-0.187,27.828
			c-2.378,40.745-71.056,85.071-48.672,111.293c1.03,1.207,5.185-12.762,5.408-13.6
			C215.056,3456.604,219.336,3444.126,260.646,3406.977z"/>
		<path d="M881.338,315.582c6.774,2.48,9.873,12.697,4.387,17.38c1.198-1.022,5.306,1.448,8.028-4.801
			c1.568-3.599,0.208-6.284-0.75-9.681c-7.762-27.537-37.289-23.66-50.147,12.45c-11.444,32.14-13.71,91.523-56.117,106.703
			c-48.383,17.32-88.677-40.944-127.64-57.727c-27.56-11.872-47.446-3.362-56.009,8.715c-15.784,22.262,7.453,46.89,25.566,35.541
			c-25.993-0.296-22.546-43.124,9.511-35.078c28.291,7.101,59.347,59.412,100.716,75.576
			c49.805,19.459,105.467-11.139,115.717-63.629c5.507-28.203-3.201-62.072,8.001-78.144
			C866.75,316.933,874.596,313.113,881.338,315.582z"/>
		<path d="M3097.871,3684.418c-6.773-2.48-9.873-12.697-4.387-17.38c-1.198,1.022-5.306-1.448-8.028,4.801
			c-1.568,3.599-0.208,6.284,0.75,9.681c7.762,27.537,37.289,23.661,50.147-12.45c11.444-32.14,13.71-91.523,56.117-106.703
			c48.383-17.32,88.677,40.944,127.64,57.727c27.56,11.872,47.447,3.362,56.009-8.715c15.784-22.262-7.453-46.89-25.566-35.541
			c25.993,0.296,22.545,43.124-9.511,35.078c-28.291-7.101-59.347-59.412-100.716-75.576
			c-49.805-19.459-105.467,11.138-115.717,63.629c-5.507,28.203,3.201,62.072-8.001,78.144
			C3112.459,3683.067,3104.613,3686.886,3097.871,3684.418z"/>
		<path d="M3090.754,310.921c-6.763,2.509-9.819,12.738-4.314,17.399c-1.202-1.017-5.3,1.47-8.048-4.767
			c-1.583-3.592-0.235-6.283,0.709-9.684c7.646-27.57,37.189-23.818,50.199,12.238c11.579,32.091,14.096,91.464,56.566,106.466
			c48.456,17.116,88.504-41.317,127.395-58.265c27.51-11.988,47.432-3.562,56.046,8.478c15.878,22.195-7.255,46.921-25.416,35.648
			c25.991-0.405,22.364-43.219-9.659-35.038c-28.261,7.22-59.096,59.662-100.396,76c-49.722,19.669-105.513-10.693-115.984-63.14
			c-5.626-28.18,2.939-62.085-8.33-78.109C3105.348,312.211,3097.486,308.424,3090.754,310.921z"/>
		<path d="M888.455,3689.079c6.763-2.509,9.819-12.738,4.314-17.399c1.202,1.017,5.3-1.47,8.048,4.767
			c1.583,3.592,0.235,6.283-0.709,9.684c-7.646,27.57-37.189,23.818-50.199-12.239c-11.579-32.091-14.096-91.464-56.566-106.466
			c-48.456-17.115-88.504,41.317-127.395,58.265c-27.51,11.988-47.432,3.562-56.046-8.478
			c-15.878-22.195,7.255-46.921,25.415-35.648c-25.991,0.406-22.363,43.219,9.659,35.038c28.261-7.22,59.096-59.662,100.396-76
			c49.722-19.669,105.513,10.693,115.984,63.14c5.626,28.18-2.939,62.085,8.33,78.109
			C873.861,3687.789,881.723,3691.576,888.455,3689.079z"/>
		<path d="M1385.279,394.044c-2.88-3.506-3.134,2.28-3.196,2.951c-0.244,2.612,3.206,13.98-6.939,23.96
			c-10.607,10.433-28.901,9.019-40.581,1.392c-26.392-17.236-25.063-42.932-59.656-51.977
			c-57.406-15.01-71.876,15.195-121.312-21.783c-40.985-30.657-75.723-116.123-141.643-169.022
			c-1.404-1.127-10.884-6.947-10.884-8.337c-9.679-7.06-49.234-33.573-61.39-31.418c-0.464,6.798,5.387,6.542,10.507,8.434
			c19.823,7.327,38.89,18.596,55.445,33.572c15.167,13.721,15.752,20.718,15.55,33.196c-1.577,9.744-3.573,46.634,6.297,47.53
			c1.173-5.615,0.718-11.709,3.699-16.833c5.818-10.297,3.621-17.625,4.789-27.357c0.682-0.299,2.059-0.874,2.754-1.173
			c19.095,12.82-16.418,69.142,4.741,99.393c1.413-5.938,2.766-11.972,5.866-17.324c1.963-7.614,5.507-14.726,7.147-22.448
			c4.254-20.024-0.355-30.02,4.719-32.101c4.664-1.913,8.647,6.566,9.624,9.833c7.509,23.354-18.589,37.56-16.088,71.002
			c1.167,15.607,8.333,34.539,23.978,40.065c1.51-50.779,4.731-53.628,2.945-74.348c-0.99-11.49,8.808-15.261,11.587-0.515
			c6.036,32.026-17.479,63.163,8.963,97.675c7.367,9.616,14.93,14.787,27.195,15.427c0.383-6.549-3.975-11.984-4.992-18.306
			c-4.82-29.945,7.016,3.56-13.889-69.515c44.721,23.077,5.497,107.345,74.482,114.266c2.021,0.203,26.732,0.127,26.721,0.588
			c0.108-4.382-3.424-7.399-5.95-10.548c-6.304-7.328-9.501-16.836-16.202-24.123c-12.051-13.107-35.233-22.07-37.934-33.133
			c-3.053-12.504,13.763-0.485,17.74,1.776c9.985,5.699,21.298,9.65,29.404,18.138c43.415,45.467,55.837,54.427,70.706,61.265
			c31.617,14.541,79.079,12.344,99.248-0.683C1387.419,431.492,1399.57,411.44,1385.279,394.044z"/>
		<path d="M2593.931,3605.956c2.881,3.506,3.134-2.28,3.196-2.951c0.244-2.612-3.207-13.98,6.939-23.96
			c10.607-10.433,28.902-9.019,40.581-1.392c26.392,17.236,25.063,42.932,59.656,51.977c57.406,15.01,71.877-15.195,121.312,21.783
			c40.985,30.656,75.723,116.123,141.643,169.022c1.404,1.126,10.884,6.947,10.884,8.337c9.678,7.06,49.234,33.573,61.39,31.418
			c0.464-6.798-5.387-6.542-10.507-8.435c-19.823-7.327-38.89-18.596-55.445-33.572c-15.167-13.721-15.752-20.718-15.55-33.196
			c1.577-9.744,3.573-46.634-6.298-47.53c-1.173,5.615-0.718,11.708-3.699,16.833c-5.818,10.297-3.621,17.625-4.789,27.356
			c-0.682,0.299-2.059,0.874-2.754,1.174c-19.095-12.82,16.418-69.142-4.741-99.394c-1.413,5.938-2.766,11.972-5.866,17.324
			c-1.963,7.614-5.507,14.726-7.147,22.448c-4.254,20.024,0.355,30.02-4.719,32.101c-4.664,1.913-8.647-6.566-9.624-9.833
			c-7.509-23.354,18.589-37.56,16.088-71.002c-1.167-15.607-8.333-34.539-23.978-40.064c-1.51,50.779-4.731,53.628-2.946,74.348
			c0.99,11.49-8.808,15.261-11.587,0.515c-6.036-32.026,17.479-63.163-8.963-97.675c-7.367-9.615-14.93-14.787-27.195-15.427
			c-0.383,6.549,3.975,11.984,4.992,18.306c4.82,29.945-7.016-3.561,13.889,69.515c-44.721-23.077-5.497-107.345-74.482-114.266
			c-2.021-0.203-26.732-0.127-26.721-0.588c-0.108,4.382,3.424,7.399,5.95,10.548c6.304,7.328,9.501,16.836,16.201,24.123
			c12.052,13.106,35.234,22.07,37.935,33.133c3.053,12.504-13.763,0.485-17.74-1.776c-9.985-5.699-21.298-9.649-29.404-18.138
			c-43.415-45.467-55.837-54.427-70.706-61.265c-31.617-14.541-79.079-12.344-99.248,0.683
			C2591.79,3568.508,2579.639,3588.56,2593.931,3605.956z"/>
		<path d="M2587.149,391.509c2.866-3.518,3.143,2.267,3.209,2.937c0.255,2.611-3.147,13.994,7.04,23.93
			c10.651,10.388,28.939,8.897,40.586,1.22c26.319-17.347,24.882-43.038,59.436-52.229c57.342-15.252,71.94,14.891,121.219-22.295
			c40.855-30.829,75.233-116.442,140.928-169.618c1.399-1.133,10.855-6.993,10.849-8.383c9.649-7.101,49.092-33.78,61.257-31.677
			c0.493,6.796-5.36,6.565-10.471,8.479c-19.792,7.41-38.811,18.76-55.303,33.806c-15.109,13.785-15.664,20.784-15.409,33.261
			c1.618,9.737,3.77,46.618-6.097,47.556c-1.197-5.61-0.768-11.706-3.77-16.817c-5.861-10.272-3.696-17.61-4.904-27.336
			c-0.684-0.296-2.063-0.865-2.759-1.162c-19.041,12.901,16.71,69.072-4.322,99.413c-1.438-5.932-2.816-11.96-5.939-17.299
			c-1.996-7.606-5.569-14.703-7.242-22.418c-4.338-20.006,0.228-30.021-4.854-32.081c-4.672-1.893-8.62,6.602-9.583,9.873
			c-7.41,23.386,18.748,37.481,16.388,70.933c-1.101,15.612-8.187,34.574-23.809,40.165c-1.724-50.772-4.957-53.607-3.259-74.335
			c0.942-11.494-8.872-15.224-11.589-0.466c-5.9,32.052,17.745,63.089-8.551,97.712c-7.326,9.647-14.868,14.85-27.13,15.542
			c-0.411-6.547,3.924-12.001,4.915-18.326c4.693-29.965-7.001,3.59,13.596-69.573c-44.624,23.266-5.044,107.368-73.999,114.579
			c-2.02,0.211-26.731,0.24-26.718,0.701c-0.126-4.381,3.393-7.413,5.906-10.573c6.273-7.354,9.43-16.876,16.1-24.191
			c11.996-13.157,35.14-22.219,37.794-33.292c3-12.517-13.765-0.427-17.733,1.851c-9.96,5.741-21.258,9.739-29.327,18.262
			c-43.223,45.65-55.607,54.662-70.446,61.563c-31.556,14.675-79.027,12.678-99.25-0.264
			C2585.167,428.965,2572.932,408.964,2587.149,391.509z"/>
		<path d="M1392.06,3608.491c-2.866,3.518-3.143-2.267-3.209-2.937c-0.255-2.611,3.147-13.994-7.04-23.93
			c-10.651-10.388-28.939-8.897-40.586-1.22c-26.319,17.347-24.882,43.038-59.436,52.229
			c-57.342,15.252-71.94-14.891-121.219,22.295c-40.855,30.829-75.233,116.442-140.928,169.618
			c-1.399,1.133-10.855,6.993-10.849,8.383c-9.649,7.101-49.092,33.78-61.257,31.677c-0.493-6.796,5.36-6.565,10.471-8.479
			c19.791-7.41,38.811-18.76,55.303-33.806c15.109-13.785,15.664-20.784,15.409-33.261c-1.618-9.737-3.77-46.618,6.097-47.556
			c1.197,5.61,0.768,11.706,3.77,16.817c5.861,10.272,3.696,17.61,4.904,27.336c0.684,0.296,2.063,0.865,2.759,1.162
			c19.041-12.901-16.71-69.072,4.322-99.413c1.438,5.932,2.816,11.96,5.94,17.299c1.995,7.606,5.569,14.702,7.242,22.417
			c4.338,20.006-0.228,30.021,4.854,32.081c4.672,1.893,8.62-6.603,9.583-9.873c7.41-23.386-18.747-37.481-16.388-70.933
			c1.101-15.612,8.187-34.574,23.809-40.165c1.724,50.772,4.957,53.607,3.259,74.334c-0.941,11.494,8.872,15.224,11.589,0.466
			c5.9-32.052-17.745-63.089,8.551-97.712c7.327-9.647,14.868-14.85,27.13-15.542c0.411,6.547-3.924,12.001-4.915,18.327
			c-4.693,29.965,7.001-3.59-13.596,69.573c44.624-23.266,5.044-107.368,73.999-114.579c2.02-0.211,26.731-0.24,26.718-0.701
			c0.126,4.381-3.393,7.413-5.906,10.573c-6.273,7.354-9.43,16.876-16.099,24.191c-11.996,13.157-35.14,22.219-37.794,33.292
			c-3,12.517,13.765,0.427,17.733-1.851c9.961-5.741,21.257-9.74,29.327-18.262c43.223-45.65,55.607-54.662,70.447-61.563
			c31.556-14.675,79.026-12.678,99.25,0.264C1394.042,3571.035,1406.278,3591.036,1392.06,3608.491z"/>
		<path d="M1035.691,411.512c7.605,29.31-64.725,27.121-49.577-46.246c4.995-24.19,27.658-72.316,4.771-137.905
			c9.835,88.378-38.153,140.889-15.239,188.494c18.069,37.54,60.885,28.448,66.393,5.249
			C1042.956,417.245,1040.49,411.161,1035.691,411.512z"/>
		<path d="M2943.518,3588.488c-7.605-29.31,64.725-27.121,49.577,46.246c-4.995,24.19-27.658,72.316-4.771,137.905
			c-9.835-88.378,38.153-140.889,15.239-188.494c-18.069-37.541-60.885-28.448-66.393-5.249
			C2936.254,3582.755,2938.719,3588.839,2943.518,3588.488z"/>
		<path d="M2936.808,407.501c-7.482,29.341,64.839,26.848,49.381-46.455c-5.096-24.169-27.963-72.199-5.353-137.884
			c-9.462,88.418,38.747,140.726,16.034,188.428c-17.911,37.616-60.764,28.705-66.37,5.529
			C2929.567,413.265,2932.008,407.17,2936.808,407.501z"/>
		<path d="M1042.402,3592.499c7.482-29.341-64.839-26.848-49.381,46.455c5.097,24.169,27.963,72.199,5.353,137.884
			c9.462-88.418-38.747-140.726-16.034-188.428c17.911-37.616,60.764-28.705,66.37-5.529
			C1049.642,3586.735,1047.202,3592.83,1042.402,3592.499z"/>
		<path d="M172.264,411.093c1.664,1.544,3.783-0.647,5.423-1.209c7.375-4.681,16.27-5.387,24.208-8.668
			c10.985-4.708,12.745-6.879,11.836-1.607c-2.841,16.463-70.784,19.467-78.329,56.571c2.957-0.239,5.843-0.658,8.632-1.509
			c24.068-8.532,31.23-5.405,52.834-19.563c2.981-1.987,6.214-3.556,9.602-4.633c1.616,17.191-25.448,20.94-42.394,23.92
			c-26.384,4.64-54.511,32.97-45.95,54.653c6.98-2.239,12.224-7.71,18.952-10.476c29.499-12.437,20.568-8.971,38.06-21.038
			c6.575-4.536,16.354-11.71,14.339-3.541c-6.192,25.115-58.852,21.404-76.871,64.817c-4.357,9.835-6.172,28.919,2.5,37.107
			c6.793-11.982,18.136-20.555,28.835-29.229c30.565-24.781,19.466-27.967,31.531-33.415c-5.227,36.596-22.902,34.978-41.647,61.303
			c-23.282,32.697-16.027,51.926-15.089,91.929c5.775-2.724,15.777-12.733,19.862-17.683c36.562-41.816,4.173-63.626,28.578-79.723
			c1.876,8.867-0.706,7.121,1.568,26.614c5.412,46.392-23.352,64.857-33.957,104.231c-10.892,40.437,1.281,82.437,23.712,112.016
			c32.656,43.063,74.261-7.861,61.962-7.298c-3.218,0.147-4.635,5.052-6.554,6.971c-12.604,12.6-33.897,4.27-33.291-16.514
			c0.877-30.048,27.823-41.656,36.702-77.786c13.331-54.249-30.578-93.119-39.342-115.429
			c-25.666-65.338,55.198-172.879,57.754-259.254c0.152-5.145-0.311-10.386,1.59-15.295c25.572,21.798,11.23,87.612,79.231,117.677
			c47.797,21.132,73.067-17.241,61.035-29.166c0.468,0.463-0.341,8.925-3.431,14.183c-6.516,11.087-24.196,19.544-43.153-4.222
			c-15.452-19.372,6.828-56.685-43.203-84.07c-16.382-8.967-41.725-18.178-54.547-47.971c-2.608-6.06-5.569-22.205-5.569-22.205
			c-0.453-0.804-3.933-2.759-3.928-3.009c-0.877,45.493,5.274,21.67,5.254,55.677c-0.011,18.676-1.629,33.439-10.582,48.577
			C217.215,373.639,167.326,396.631,172.264,411.093z"/>
		<path d="M3806.945,3588.907c-1.664-1.544-3.783,0.647-5.424,1.209c-7.375,4.681-16.27,5.388-24.208,8.668
			c-10.985,4.708-12.745,6.879-11.835,1.607c2.841-16.463,70.784-19.467,78.329-56.571c-2.957,0.239-5.843,0.658-8.632,1.509
			c-24.068,8.532-31.229,5.405-52.833,19.563c-2.981,1.987-6.214,3.556-9.602,4.633c-1.616-17.191,25.448-20.94,42.394-23.92
			c26.384-4.641,54.511-32.97,45.95-54.653c-6.98,2.239-12.224,7.71-18.952,10.476c-29.499,12.437-20.568,8.971-38.06,21.038
			c-6.575,4.536-16.354,11.71-14.339,3.541c6.192-25.115,58.852-21.405,76.871-64.817c4.357-9.835,6.172-28.919-2.5-37.107
			c-6.793,11.982-18.136,20.555-28.835,29.229c-30.565,24.781-19.466,27.967-31.531,33.415
			c5.227-36.596,22.902-34.978,41.647-61.303c23.282-32.697,16.027-51.926,15.09-91.929c-5.775,2.724-15.777,12.733-19.862,17.683
			c-36.562,41.816-4.173,63.626-28.578,79.723c-1.876-8.867,0.706-7.121-1.568-26.614c-5.413-46.392,23.352-64.858,33.957-104.231
			c10.891-40.438-1.281-82.437-23.712-112.017c-32.656-43.063-74.26,7.861-61.962,7.298c3.218-0.147,4.635-5.052,6.554-6.971
			c12.604-12.6,33.897-4.27,33.291,16.514c-0.877,30.048-27.823,41.655-36.702,77.786c-13.331,54.249,30.578,93.119,39.342,115.429
			c25.666,65.338-55.198,172.879-57.754,259.254c-0.152,5.145,0.311,10.386-1.59,15.295c-25.572-21.798-11.23-87.612-79.231-117.677
			c-47.797-21.132-73.067,17.24-61.035,29.166c-0.468-0.463,0.341-8.925,3.431-14.183c6.516-11.087,24.196-19.544,43.153,4.222
			c15.452,19.372-6.828,56.685,43.203,84.07c16.382,8.967,41.725,18.178,54.547,47.971c2.608,6.06,5.569,22.205,5.569,22.205
			c0.453,0.803,3.933,2.759,3.928,3.009c0.877-45.493-5.274-21.67-5.254-55.677c0.011-18.676,1.629-33.439,10.582-48.577
			C3761.995,3626.361,3811.883,3603.369,3806.945,3588.907z"/>
		<path d="M3800.225,403.439c-1.657,1.551-3.786-0.631-5.429-1.186c-7.394-4.65-16.292-5.319-24.244-8.566
			c-11.005-4.662-12.774-6.825-11.842-1.557c2.911,16.451,70.866,19.168,78.567,56.24c-2.958-0.227-5.845-0.634-8.638-1.472
			c-24.104-8.43-31.252-5.273-52.916-19.34c-2.99-1.975-6.229-3.529-9.621-4.593c-1.543,17.198,25.537,20.833,42.494,23.741
			c26.403,4.529,54.649,32.74,46.18,54.459c-6.989-2.209-12.256-7.658-18.996-10.396c-29.551-12.312-20.605-8.884-38.148-20.877
			c-6.594-4.508-16.403-11.641-14.354-3.48c6.298,25.089,58.942,21.156,77.144,64.492c4.398,9.816,6.294,28.892-2.344,37.118
			c-6.844-11.954-18.222-20.478-28.958-29.108c-30.669-24.651-19.583-27.885-31.671-33.281c5.382,36.574,23.05,34.881,41.905,61.127
			c23.419,32.599,16.246,51.858,15.477,91.865c-5.786-2.699-15.831-12.667-19.936-17.599c-36.738-41.661-4.441-63.608-28.914-79.602
			c-1.839,8.875,0.736,7.118-1.456,26.621c-5.217,46.414,23.625,64.758,34.396,104.087c11.062,40.391-0.933,82.442-23.239,112.116
			c-32.474,43.201-74.293-7.548-61.992-7.036c3.219,0.134,4.656,5.033,6.583,6.943c12.657,12.546,33.915,4.126,33.221-16.654
			c-1.003-30.044-27.999-41.538-37.03-77.631c-13.56-54.192,30.185-93.247,38.854-115.594
			c25.39-65.445-55.927-172.645-58.847-259.008c-0.174-5.144,0.267-10.387-1.655-15.288c-25.48,21.905-10.86,87.659-78.734,118.01
			c-47.708,21.334-73.139-16.932-61.158-28.909c-0.466,0.465,0.378,8.923,3.491,14.168c6.563,11.06,24.278,19.441,43.135-4.404
			c15.371-19.437-7.067-56.655,42.848-84.251c16.344-9.036,41.648-18.354,54.344-48.201c2.582-6.071,5.475-22.229,5.475-22.229
			c0.45-0.806,3.921-2.775,3.915-3.026c1.069,45.489-5.183,21.692-5.019,55.699c0.09,18.675,1.77,33.432,10.787,48.532
			C3755.117,366.175,3805.102,388.957,3800.225,403.439z"/>
		<path d="M178.984,3596.561c1.657-1.551,3.786,0.631,5.428,1.186c7.394,4.65,16.293,5.319,24.244,8.566
			c11.005,4.662,12.774,6.825,11.842,1.557c-2.911-16.451-70.866-19.168-78.567-56.24c2.958,0.227,5.845,0.634,8.638,1.472
			c24.104,8.43,31.252,5.273,52.916,19.339c2.989,1.975,6.228,3.53,9.621,4.593c1.543-17.198-25.537-20.833-42.494-23.741
			c-26.403-4.529-54.649-32.74-46.18-54.459c6.989,2.209,12.256,7.658,18.996,10.396c29.551,12.312,20.606,8.884,38.149,20.877
			c6.594,4.508,16.403,11.641,14.354,3.48c-6.298-25.089-58.941-21.156-77.144-64.492c-4.398-9.816-6.294-28.892,2.344-37.118
			c6.844,11.954,18.222,20.478,28.958,29.108c30.669,24.651,19.583,27.885,31.671,33.281c-5.382-36.574-23.05-34.881-41.905-61.127
			c-23.419-32.599-16.246-51.858-15.477-91.865c5.786,2.699,15.831,12.667,19.936,17.599c36.738,41.661,4.441,63.608,28.914,79.602
			c1.839-8.875-0.736-7.118,1.456-26.621c5.217-46.414-23.625-64.758-34.396-104.087c-11.062-40.391,0.933-82.442,23.239-112.115
			c32.474-43.201,74.293,7.548,61.992,7.036c-3.219-0.134-4.656-5.033-6.583-6.943c-12.657-12.546-33.915-4.126-33.221,16.654
			c1.003,30.044,27.999,41.538,37.03,77.631c13.56,54.192-30.185,93.247-38.854,115.594
			c-25.39,65.446,55.927,172.645,58.847,259.008c0.174,5.144-0.267,10.387,1.655,15.288c25.48-21.905,10.861-87.659,78.734-118.01
			c47.707-21.334,73.139,16.932,61.158,28.908c0.466-0.465-0.378-8.923-3.491-14.168c-6.562-11.06-24.278-19.441-43.135,4.404
			c-15.37,19.437,7.067,56.655-42.848,84.251c-16.344,9.036-41.648,18.354-54.344,48.201c-2.582,6.071-5.475,22.229-5.475,22.229
			c-0.45,0.806-3.921,2.775-3.915,3.026c-1.069-45.489,5.183-21.692,5.019-55.699c-0.09-18.675-1.77-33.431-10.787-48.531
			C224.092,3633.825,174.107,3611.043,178.984,3596.561z"/>
		<path d="M11.383,409.796c22.918,20.997,69.312,14.614,98.602-9.982c16.12-13.536,23.719-26.216,76.113-100.69
			c11.696-16.625,33.249-48.721,24.887-67.414c-1.486,14.531-11.902,27.774-25.674,32.641
			c-24.889,8.797-35.243-16.222-83.671-10.555c-9.607,1.124-20.825,2.958-29.573,7.169c-15.591,7.505-26.059,25.507-23.469,42.828
			c1.49-9.281,11.608-14.992,21-15.359c18.205-0.713,57.684,23.215,107.741-6.373c3.881-1.492,8.375-1.308,12.121,0.497
			c-21.043,27.402-44.534,28.474-89.155,40.415c-25.584,7.17-30.356,41.357-41.701,60.127C34.301,423.31-7.25,395.931,5.302,367.662
			C-4.239,379.997-0.113,399.264,11.383,409.796z"/>
		<path d="M3967.826,3590.204c-22.918-20.997-69.312-14.614-98.603,9.981c-16.12,13.536-23.719,26.216-76.113,100.69
			c-11.696,16.625-33.249,48.721-24.887,67.414c1.486-14.531,11.902-27.774,25.674-32.641c24.889-8.797,35.243,16.222,83.671,10.555
			c9.607-1.124,20.825-2.958,29.573-7.169c15.591-7.505,26.059-25.507,23.469-42.828c-1.49,9.281-11.608,14.991-21,15.359
			c-18.206,0.713-57.685-23.215-107.741,6.373c-3.881,1.492-8.375,1.308-12.121-0.497c21.042-27.402,44.534-28.474,89.155-40.415
			c25.584-7.17,30.355-41.357,41.7-60.126c24.304-40.21,65.856-12.831,53.304,15.438
			C3983.448,3620.003,3979.322,3600.736,3967.826,3590.204z"/>
		<path d="M3961.1,401.464c-22.829,21.093-69.25,14.906-98.644-9.565c-16.177-13.468-23.83-26.115-76.537-100.368
			c-11.766-16.575-33.455-48.581-25.171-67.309c1.547,14.524,12.02,27.724,25.812,32.533c24.926,8.692,35.174-16.371,83.625-10.908
			c9.611,1.084,20.837,2.87,29.603,7.044c15.622,7.44,26.167,25.397,23.65,42.728c-1.529-9.275-11.671-14.943-21.065-15.271
			c-18.208-0.636-57.586,23.458-107.767-5.918c-3.887-1.476-8.381-1.272-12.119,0.548c21.158,27.313,44.654,28.286,89.324,40.038
			c25.614,7.062,30.53,41.228,41.954,59.95c24.474,40.107,65.909,12.553,53.238-15.662
			C3976.595,371.599,3972.551,390.883,3961.1,401.464z"/>
		<path d="M18.11,3598.536c22.829-21.093,69.249-14.906,98.644,9.565c16.177,13.468,23.83,26.115,76.537,100.368
			c11.766,16.575,33.455,48.581,25.171,67.309c-1.547-14.524-12.02-27.724-25.812-32.533c-24.926-8.692-35.174,16.371-83.625,10.908
			c-9.612-1.084-20.837-2.87-29.603-7.044c-15.622-7.439-26.167-25.397-23.65-42.729c1.529,9.275,11.671,14.943,21.065,15.271
			c18.208,0.636,57.586-23.458,107.767,5.918c3.888,1.476,8.381,1.272,12.119-0.548c-21.158-27.313-44.654-28.286-89.324-40.039
			c-25.614-7.062-30.53-41.228-41.954-59.95c-24.474-40.107-65.91-12.553-53.238,15.662
			C2.614,3628.401,6.659,3609.117,18.11,3598.536z"/>
		<path d="M783.499,347.716c7.326,0.239,14.221,3.317,20.898,6.342c-6.556-14.097-24.194-21.946-39.055-17.379
			c-14.861,4.566-25.048,20.966-22.557,36.311c4.771,29.389,46.518,38.768,61.362,8.646c1.076-2.183,2.749-4.95-0.168-6.355
			c-2.637-1.271-5.267,2.005-7.316,3.162c-18.58,10.492-38.175-6.16-31.463-20.98C768.226,350.785,776.173,347.477,783.499,347.716z
			"/>
		<path d="M3195.71,3652.284c-7.326-0.239-14.222-3.317-20.898-6.342c6.556,14.097,24.194,21.946,39.054,17.379
			c14.861-4.566,25.048-20.966,22.557-36.311c-4.771-29.388-46.518-38.768-61.362-8.646c-1.076,2.183-2.749,4.95,0.168,6.355
			c2.637,1.271,5.267-2.005,7.316-3.162c18.58-10.492,38.175,6.16,31.463,20.98
			C3210.984,3649.215,3203.036,3652.523,3195.71,3652.284z"/>
		<path d="M3188.728,342.642c-7.325,0.27-14.207,3.377-20.871,6.43c6.496-14.124,24.101-22.048,38.981-17.544
			c14.88,4.504,25.136,20.86,22.709,36.216c-4.647,29.408-46.354,38.964-61.325,8.905c-1.085-2.178-2.77-4.938,0.141-6.356
			c2.632-1.282,5.275,1.982,7.33,3.131c18.625,10.413,38.148-6.321,31.374-21.113
			C3204.014,345.647,3196.053,342.372,3188.728,342.642z"/>
		<path d="M790.481,3657.358c7.325-0.27,14.207-3.377,20.871-6.43c-6.496,14.124-24.101,22.048-38.981,17.544
			s-25.136-20.86-22.71-36.216c4.647-29.408,46.354-38.964,61.325-8.905c1.085,2.178,2.77,4.938-0.141,6.356
			c-2.632,1.282-5.275-1.982-7.33-3.131c-18.624-10.413-38.148,6.321-31.374,21.113
			C775.195,3654.353,783.156,3657.628,790.481,3657.358z"/>
		<path d="M779.891,317.864c-34.373-9.115-53.525,17.093-64.32,31.493c-26.437,35.263-27.756,23.85,8.117,55.883
			c9.75,8.706,34.384,33.521,68.438,11.56c20.427-13.172,34.906-45.246,18.335-25.719c-27.228,32.085-48.77,25.801-73.419,3.529
			c-16.368-14.789-17.032-15.026-17.799-17.196c-2.09-5.909,29.082-59.579,65.517-50.78c10.71,2.586,19.344,10.262,27.495,17.674
			C805.895,331.466,793.802,321.553,779.891,317.864z"/>
		<path d="M3199.319,3682.136c34.373,9.115,53.524-17.093,64.32-31.493c26.438-35.263,27.756-23.85-8.117-55.883
			c-9.75-8.706-34.384-33.521-68.438-11.561c-20.427,13.172-34.906,45.246-18.335,25.719c27.229-32.084,48.771-25.801,73.419-3.529
			c16.368,14.789,17.032,15.026,17.799,17.196c2.09,5.909-29.082,59.579-65.517,50.78c-10.71-2.586-19.344-10.262-27.495-17.674
			C3173.314,3668.534,3185.407,3678.447,3199.319,3682.136z"/>
		<path d="M3192.211,312.775c34.334-9.26,53.596,16.867,64.452,31.221c26.586,35.151,27.857,23.733-7.882,55.917
			c-9.713,8.747-34.242,33.665-68.389,11.849c-20.482-13.086-35.097-45.098-18.443-25.641c27.364,31.969,48.879,25.595,73.433,3.22
			c16.305-14.858,16.968-15.098,17.726-17.271c2.065-5.918-29.333-59.456-65.731-50.503c-10.699,2.632-19.3,10.343-27.42,17.79
			C3166.264,326.487,3178.315,316.522,3192.211,312.775z"/>
		<path d="M786.998,3687.225c-34.334,9.26-53.596-16.867-64.452-31.221c-26.586-35.151-27.857-23.732,7.881-55.917
			c9.713-8.747,34.242-33.666,68.389-11.849c20.482,13.086,35.097,45.098,18.443,25.641c-27.364-31.969-48.879-25.595-73.433-3.219
			c-16.305,14.858-16.968,15.098-17.727,17.271c-2.065,5.918,29.333,59.456,65.731,50.503c10.699-2.632,19.3-10.343,27.42-17.79
			C812.945,3673.513,800.894,3683.478,786.998,3687.225z"/>
		<path d="M804.259,285.202c-30.638-28.671-76.037-24.297-96.587,5.492c-10.921,15.831-13.205,37.145-26.903,51.037
			c-23.235,23.564-52.032,0.019-41.01-22.009c-19.761,13.052-11.969,46.509,16.117,50.297c38.072,5.135,46.589-40.261,64.788-57.756
			c20.696-19.895,68.471-25.867,107.884,27.363C828.547,339.626,831.074,310.295,804.259,285.202z"/>
		<path d="M3174.95,3714.798c30.638,28.671,76.037,24.297,96.587-5.492c10.921-15.831,13.205-37.145,26.903-51.037
			c23.235-23.564,52.032-0.019,41.01,22.009c19.761-13.052,11.969-46.509-16.117-50.296c-38.073-5.135-46.589,40.261-64.788,57.756
			c-20.696,19.895-68.471,25.867-107.884-27.363C3150.662,3660.374,3148.135,3689.705,3174.95,3714.798z"/>
		<path d="M3167.705,280.216c30.517-28.8,75.934-24.618,96.61,5.085c10.988,15.784,13.361,37.089,27.118,50.923
			c23.334,23.466,52.031-0.201,40.917-22.182c19.816,12.968,12.165,46.458-15.905,50.364c-38.05,5.295-46.758-40.064-65.031-57.482
			c-20.78-19.808-68.58-25.577-107.767,27.818C3143.646,334.742,3140.996,305.422,3167.705,280.216z"/>
		<path d="M811.505,3719.784c-30.517,28.8-75.934,24.617-96.61-5.085c-10.988-15.784-13.361-37.089-27.118-50.923
			c-23.334-23.466-52.031,0.201-40.917,22.182c-19.816-12.968-12.165-46.458,15.904-50.364c38.05-5.295,46.758,40.064,65.031,57.482
			c20.78,19.808,68.58,25.577,107.767-27.818C835.563,3665.258,838.214,3694.578,811.505,3719.784z"/>
		<path d="M397.007,335.487c22.769,3.33,34.301,22.916,31.202,37.133c-3.5,16.053-18.395,13.722-24.557,15.546
			c-1.215,12.982,43.62-0.299,36.276-41.58c-6.35-35.691-36.323-65.427-70.94-74.603c-25.996-6.891-37.673-15.031-50.9-25.315
			c0.421,0.327,3.182-1.877,3.833-2.108c2.318-0.826,5.384-0.755,7.825-0.949c112.432-8.915,182.523-71.225,243.585-60.022
			c39.894,7.319,60.751,47.221,115.569,45.427c20.808-0.681,30.311-6.784,41.379-15.215c65.136-49.622,76.784-9.466,69.157,5.659
			c-2.097,4.158-7.308,6.407-8.647,10.929c14.133,0.483,24.677-19.838,22.581-36.202c-4.058-31.674-75.512-68.116-133.086-46.926
			c-22.347,8.659-42.114,23.908-65.557,29.544c-15.086,3.627-32.136,1.43-51.842-0.107c-2.19-0.171-6.744,0.316-7.318-2.086
			c-0.832-3.483,4.62-5.02,6.848-6.269c13.547-7.595,38.911,4.788,67.333-16.718c4.509-3.412,22.095-18.245,21.633-24.443
			c-43.614-2.423-65.746-6.816-95.08,20.554c-13.672,12.756-23.32,27.733-42.443,33.201c-1.368,0.391-11.164,2.213-11.531,2.85
			c2.754-4.777,7.626-7.543,11.781-10.919c20.233-16.445,30.485-35.625,35.833-40.933c2.685-2.665,19.967-7.752,9.219-11.003
			c-56.695-17.149-72.543,56.715-85.646,70.641c-7.3,7.759-5.631,6.395-14.885,7.64c-1.018,0.137,2.927-9.617,3.418-10.354
			c26.288-39.482,13.762-31.189,33.959-60.264c-1.859-1.989-23.347-10.62-46.811,26.674c-8.23,16.14-5.597,29.17-9.53,39.077
			c-8.548,22.411-12.173,21.533-20.999,21.478c0.215-3.999,2.454-7.351,4.538-10.619c14.515-21.869,11.064-33.77,20.496-56.186
			c6.469-9.938-21.521-3.405-39.466,47.406c-8.702,24.639-17.8,30.773-19.557,25.685c0.982-5.986,6.896-9.757,7.83-15.815
			c1.688-6.058,0.227-13.325,5.076-18.15c4.152-4.741-0.97-14.688-19.465,10.639c-10.143,13.89-10.127,20.106-14.17,26.45
			c-5.068,7.951-34.066,15.638-58.297,13.579c-15.861-1.347-29.787-9.827-42.229-3.455c1.869,1.912,4.658,1.746,7.07,2.423
			c59.178,16.602,47.371,74.044,93.222,91.883C374.234,333.759,385.925,333.866,397.007,335.487z"/>
		<path d="M3582.202,3664.513c-22.77-3.33-34.301-22.916-31.202-37.133c3.5-16.053,18.395-13.722,24.557-15.546
			c1.215-12.982-43.62,0.299-36.276,41.58c6.35,35.691,36.323,65.427,70.94,74.603c25.996,6.891,37.673,15.031,50.9,25.315
			c-0.421-0.327-3.182,1.877-3.833,2.108c-2.319,0.826-5.384,0.755-7.824,0.949c-112.432,8.915-182.523,71.225-243.585,60.022
			c-39.894-7.319-60.751-47.221-115.569-45.427c-20.809,0.681-30.312,6.784-41.379,15.215c-65.136,49.622-76.784,9.466-69.157-5.659
			c2.097-4.158,7.308-6.407,8.647-10.929c-14.133-0.483-24.677,19.838-22.581,36.201c4.058,31.674,75.512,68.116,133.086,46.926
			c22.347-8.659,42.114-23.908,65.557-29.544c15.086-3.627,32.136-1.43,51.842,0.107c2.19,0.171,6.744-0.316,7.318,2.086
			c0.832,3.483-4.62,5.02-6.848,6.269c-13.547,7.595-38.911-4.788-67.333,16.718c-4.509,3.412-22.095,18.245-21.633,24.443
			c43.614,2.423,65.746,6.816,95.08-20.554c13.672-12.756,23.32-27.733,42.443-33.201c1.368-0.391,11.165-2.213,11.531-2.85
			c-2.754,4.777-7.626,7.542-11.781,10.919c-20.233,16.445-30.485,35.625-35.833,40.933c-2.685,2.665-19.967,7.752-9.219,11.003
			c56.695,17.149,72.543-56.715,85.646-70.641c7.3-7.759,5.631-6.395,14.885-7.64c1.018-0.137-2.927,9.617-3.418,10.354
			c-26.288,39.482-13.762,31.189-33.959,60.264c1.859,1.989,23.347,10.62,46.811-26.674c8.23-16.14,5.597-29.17,9.53-39.077
			c8.548-22.411,12.173-21.533,20.999-21.478c-0.215,3.999-2.454,7.351-4.538,10.619c-14.515,21.869-11.064,33.77-20.496,56.186
			c-6.469,9.938,21.521,3.405,39.466-47.406c8.702-24.639,17.8-30.773,19.557-25.685c-0.982,5.986-6.896,9.757-7.83,15.815
			c-1.688,6.058-0.227,13.325-5.076,18.15c-4.153,4.741,0.97,14.688,19.465-10.639c10.143-13.89,10.127-20.106,14.17-26.45
			c5.068-7.951,34.066-15.638,58.297-13.579c15.861,1.347,29.787,9.827,42.229,3.455c-1.869-1.912-4.658-1.746-7.07-2.423
			c-59.178-16.602-47.371-74.044-93.222-91.883C3604.975,3666.241,3593.284,3666.134,3582.202,3664.513z"/>
		<path d="M3575.165,328.782c-22.755,3.426-34.204,23.06-31.045,37.264c3.568,16.039,18.453,13.644,24.623,15.443
			c1.27,12.976-43.621-0.115-36.451-41.426c6.199-35.717,36.047-65.58,70.625-74.902c25.967-7,37.609-15.19,50.793-25.53
			c-0.419,0.329-3.19-1.863-3.842-2.092c-2.322-0.816-5.387-0.732-7.828-0.916c-112.469-8.441-182.822-70.454-243.836-58.994
			c-39.863,7.487-60.551,47.477-115.377,45.914c-20.811-0.593-30.34-6.656-41.443-15.041c-65.345-49.346-76.823-9.142-69.132,5.951
			c2.115,4.15,7.335,6.376,8.693,10.893c-14.131,0.542-24.761-19.734-22.734-36.106c3.924-31.691,75.224-68.434,132.886-47.487
			c22.383,8.564,42.214,23.73,65.681,29.267c15.102,3.563,32.142,1.295,51.841-0.326c2.189-0.18,6.745,0.287,7.31-2.117
			c0.817-3.487-4.641-5-6.875-6.24c-13.579-7.538-38.891,4.952-67.402-16.433c-4.523-3.392-22.172-18.152-21.736-24.351
			c43.603-2.607,65.717-7.094,95.166,20.152c13.726,12.699,23.437,27.634,42.583,33.022c1.37,0.386,11.174,2.166,11.543,2.801
			c-2.774-4.765-7.658-7.51-11.827-10.869c-20.302-16.36-30.635-35.496-36.005-40.782c-2.696-2.653-19.999-7.668-9.265-10.964
			c56.622-17.388,72.782,56.408,85.943,70.279c7.333,7.728,5.658,6.372,14.917,7.577c1.019,0.133-2.968-9.605-3.461-10.339
			c-26.454-39.371-13.893-31.131-34.213-60.121c1.851-1.996,23.302-10.718,46.923,26.476c8.298,16.105,5.72,29.146,9.695,39.037
			c8.642,22.375,12.264,21.481,21.09,21.389c-0.232-3.998-2.485-7.34-4.582-10.6c-14.607-21.808-11.207-33.723-20.733-56.099
			c-6.511-9.91,21.506-3.495,39.666,47.239c8.806,24.602,17.929,30.698,19.665,25.602c-1.007-5.982-6.937-9.728-7.896-15.782
			c-1.714-6.051-0.284-13.324-5.153-18.128c-4.172-4.723,0.908-14.692,19.51,10.557c10.202,13.847,10.211,20.064,14.282,26.39
			c5.102,7.929,34.132,15.494,58.354,13.333c15.855-1.414,29.746-9.952,42.214-3.633c-1.861,1.92-4.651,1.766-7.06,2.453
			c-59.108,16.852-47.058,74.244-92.833,92.275C3597.931,326.958,3586.24,327.115,3575.165,328.782z"/>
		<path d="M404.044,3671.218c22.755-3.426,34.204-23.06,31.045-37.264c-3.568-16.039-18.453-13.644-24.623-15.442
			c-1.269-12.976,43.621,0.115,36.451,41.426c-6.199,35.717-36.047,65.58-70.624,74.902c-25.967,7-37.609,15.19-50.793,25.53
			c0.419-0.329,3.19,1.863,3.842,2.092c2.322,0.816,5.387,0.732,7.828,0.916c112.469,8.44,182.822,70.454,243.836,58.994
			c39.863-7.487,60.551-47.477,115.377-45.914c20.811,0.593,30.34,6.656,41.443,15.041c65.345,49.346,76.823,9.142,69.132-5.951
			c-2.115-4.15-7.335-6.376-8.693-10.893c14.131-0.542,24.761,19.734,22.734,36.106c-3.924,31.691-75.224,68.434-132.886,47.487
			c-22.383-8.564-42.214-23.73-65.681-29.267c-15.102-3.563-32.142-1.295-51.841,0.326c-2.189,0.18-6.745-0.287-7.309,2.117
			c-0.817,3.487,4.641,5,6.874,6.24c13.579,7.538,38.891-4.952,67.403,16.433c4.523,3.393,22.172,18.152,21.736,24.352
			c-43.603,2.607-65.717,7.094-95.166-20.152c-13.725-12.698-23.437-27.634-42.583-33.022c-1.37-0.385-11.174-2.166-11.543-2.801
			c2.774,4.765,7.658,7.51,11.827,10.869c20.302,16.36,30.635,35.496,36.005,40.782c2.696,2.653,19.999,7.668,9.265,10.964
			c-56.622,17.388-72.782-56.408-85.943-70.279c-7.333-7.728-5.658-6.372-14.917-7.577c-1.018-0.133,2.968,9.604,3.461,10.339
			c26.454,39.371,13.893,31.131,34.213,60.121c-1.85,1.997-23.302,10.718-46.923-26.476c-8.298-16.105-5.72-29.146-9.695-39.037
			c-8.642-22.375-12.264-21.481-21.09-21.389c0.232,3.998,2.485,7.341,4.582,10.6c14.607,21.808,11.207,33.723,20.733,56.099
			c6.511,9.91-21.506,3.496-39.666-47.239c-8.806-24.603-17.929-30.698-19.665-25.602c1.007,5.982,6.937,9.728,7.897,15.782
			c1.714,6.051,0.284,13.324,5.153,18.128c4.172,4.723-0.908,14.692-19.51-10.557c-10.202-13.847-10.211-20.064-14.282-26.39
			c-5.102-7.929-34.132-15.494-58.354-13.333c-15.855,1.415-29.746,9.952-42.214,3.633c1.861-1.92,4.651-1.766,7.06-2.453
			c59.108-16.852,47.058-74.244,92.834-92.275C381.279,3673.042,392.969,3672.885,404.044,3671.218z"/>
		<path d="M135.49,407.516C-5.235,590,79.71,991.995,261.894,984.581c105.016-4.274,120.288-97.213,75.001-103.435
			c-5.986-0.012-11.541,3.388-15.492,7.734c0.347,0.491,1.053,1.497,1.401,1.987c3.987-0.503,7.997-1.209,11.984-0.922
			c36.681,2.657-30.689,114.421-132.129,48.166C141.792,898.357,106.626,807.73,96.08,735.057
			c-10.711-73.389-6.895-137.339-6.603-151.097c0.038,1.01,0.076,2.02,0.114,3.031c-0.469-12.446,2.268-99.739,50.773-169.337
			c26.395-37.874,71.534-76.563,73.057-128.118c-0.148,4.994-3.685,11.475-5.584,16.045
			C192.062,343.548,160.976,374.468,135.49,407.516z"/>
		<path d="M3843.719,3592.484c140.725-182.484,55.78-584.479-126.403-577.065c-105.016,4.274-120.289,97.213-75.001,103.435
			c5.986,0.012,11.541-3.388,15.492-7.734c-0.347-0.491-1.053-1.497-1.401-1.988c-3.987,0.503-7.997,1.209-11.984,0.922
			c-36.681-2.657,30.689-114.421,132.129-48.166c60.866,39.755,96.032,130.381,106.578,203.054
			c10.711,73.389,6.895,137.339,6.604,151.098c-0.038-1.01-0.076-2.021-0.114-3.031c0.469,12.446-2.268,99.739-50.773,169.337
			c-26.396,37.874-71.534,76.563-73.057,128.118c0.147-4.994,3.685-11.475,5.584-16.045
			C3787.148,3656.452,3818.233,3625.532,3843.719,3592.484z"/>
		<path d="M3836.984,399.707c141.493,181.889,58.245,584.239-123.968,577.593c-105.033-3.831-120.698-96.705-75.437-103.117
			c5.986-0.037,11.555,3.339,15.524,7.669c-0.345,0.492-1.047,1.501-1.392,1.993c-3.989-0.486-8.002-1.175-11.988-0.871
			c-36.67,2.812,31.171,114.291,132.331,47.608c60.698-40.011,95.481-130.785,105.72-203.502
			c10.401-73.434,6.315-137.367,5.966-151.124c-0.034,1.01-0.068,2.021-0.101,3.031c0.417-12.448-2.689-99.729-51.487-169.122
			c-26.555-37.763-71.857-76.26-73.597-127.809c0.169,4.994,3.734,11.459,5.652,16.022
			C3780.143,335.979,3811.359,366.767,3836.984,399.707z"/>
		<path d="M142.226,3600.293C0.732,3418.404,83.98,3016.054,266.193,3022.699c105.033,3.831,120.698,96.705,75.437,103.117
			c-5.986,0.037-11.556-3.339-15.525-7.668c0.345-0.492,1.047-1.501,1.392-1.993c3.989,0.486,8.002,1.176,11.988,0.871
			c36.67-2.812-31.172-114.291-132.331-47.608c-60.698,40.011-95.481,130.785-105.72,203.502
			c-10.401,73.434-6.315,137.367-5.966,151.124c0.034-1.01,0.068-2.021,0.101-3.031c-0.417,12.448,2.689,99.729,51.487,169.122
			c26.555,37.763,71.857,76.26,73.597,127.809c-0.169-4.994-3.734-11.459-5.652-16.022
			C199.066,3664.021,167.85,3633.233,142.226,3600.293z"/>
		<path d="M1352.45,285.761c-21.785,17.295-46.258,44.035-95.999,60.454c61.866,2.312,108.357-57.511,143.878-66.898
			c43.743-11.559,55.134,35.659,30.882,38.853c4.192,7.887,19.365,7.913,24.172-7.84
			C1466.234,274.772,1419.738,232.341,1352.45,285.761z"/>
		<path d="M2626.76,3714.239c21.785-17.295,46.258-44.035,95.999-60.454c-61.866-2.312-108.357,57.511-143.878,66.898
			c-43.743,11.559-55.134-35.659-30.882-38.853c-4.191-7.887-19.365-7.913-24.172,7.84
			C2512.976,3725.228,2559.472,3767.659,2626.76,3714.239z"/>
		<path d="M2619.521,283.088c21.858,17.203,46.443,43.839,96.253,60.048c-61.855,2.573-108.599-57.054-144.159-66.29
			c-43.792-11.374-54.983,35.892-30.718,38.983c-4.158,7.904-19.332,7.995-24.205-7.738
			C2505.692,272.58,2552.009,229.953,2619.521,283.088z"/>
		<path d="M1359.688,3716.912c-21.858-17.203-46.443-43.839-96.253-60.048c61.855-2.573,108.599,57.054,144.159,66.29
			c43.791,11.374,54.983-35.892,30.718-38.983c4.158-7.904,19.332-7.995,24.205,7.738
			C1473.517,3727.42,1427.201,3770.047,1359.688,3716.912z"/>
		<path d="M1409.87,237.28c30.808-0.616,41.375-5.02,56.219-22.904c17.784-21.426,19.604-30.098,27.239-33.818
			c6.264-3.053,53.323-11.958,35.46,31.34c9.495,4.881,25.993-44.233-25.711-52.757c-26.701-4.402-51.837,0.006-74.159,14.869
			c-21.462,14.29-31.552,42.791-84.998,74.566c5.552-15.501,31.76-28.123,44.509-57.807c16.313-37.984-10.113-68.356-22.587-55.042
			c10.198-1.764,20.304,12.225,9.489,26.57c-7.35,9.749-19.899,13.748-28.707,21.984c-20.718,19.369-13.741,47.537-18.681,75.004
			c-3.835,9.684-7.67,19.369-11.505,29.053C1338.33,261.962,1352.849,238.42,1409.87,237.28z"/>
		<path d="M2569.34,3762.72c-30.808,0.616-41.375,5.02-56.219,22.904c-17.784,21.426-19.604,30.098-27.239,33.818
			c-6.264,3.052-53.323,11.958-35.46-31.34c-9.495-4.881-25.993,44.233,25.711,52.757c26.701,4.402,51.837-0.006,74.159-14.869
			c21.461-14.291,31.552-42.791,84.998-74.566c-5.552,15.501-31.76,28.123-44.509,57.807
			c-16.313,37.984,10.113,68.356,22.587,55.042c-10.198,1.764-20.304-12.225-9.49-26.57c7.35-9.749,19.899-13.748,28.707-21.984
			c20.718-19.369,13.741-47.537,18.681-75.004c3.835-9.684,7.67-19.368,11.505-29.053
			C2640.879,3738.038,2626.36,3761.58,2569.34,3762.72z"/>
		<path d="M2561.897,234.849c-30.81-0.486-41.395-4.845-56.315-22.666c-17.874-21.351-19.731-30.015-27.382-33.703
			c-6.277-3.026-53.373-11.733-35.327,31.489c-9.474,4.921-26.179-44.123,25.488-52.865c26.682-4.515,51.837-0.213,74.221,14.556
			c21.522,14.2,31.733,42.657,85.312,74.206c-5.617-15.478-31.879-27.989-44.752-57.618c-16.474-37.915,9.824-68.398,22.355-55.137
			c-10.205-1.721-20.253,12.311-9.377,26.609c7.391,9.718,19.956,13.664,28.8,21.862c20.799,19.282,13.942,47.479,18.998,74.924
			c3.876,9.668,7.752,19.336,11.627,29.004C2633.54,259.229,2618.922,235.749,2561.897,234.849z"/>
		<path d="M1417.312,3765.151c30.81,0.486,41.395,4.845,56.315,22.666c17.874,21.351,19.731,30.015,27.381,33.703
			c6.277,3.026,53.373,11.733,35.327-31.489c9.474-4.921,26.179,44.123-25.488,52.865c-26.682,4.515-51.837,0.213-74.221-14.556
			c-21.522-14.2-31.733-42.657-85.312-74.207c5.618,15.478,31.879,27.989,44.752,57.618c16.474,37.915-9.824,68.398-22.355,55.137
			c10.205,1.72,20.253-12.311,9.377-26.61c-7.391-9.718-19.956-13.664-28.8-21.862c-20.799-19.281-13.942-47.479-18.998-74.924
			c-3.876-9.668-7.752-19.336-11.627-29.004C1345.669,3740.771,1360.287,3764.251,1417.312,3765.151z"/>
		<path d="M631.281,259.697c1.768,0.082,16.521-0.793,16.521,1.335c0.244-9.325-29.082-51.006-74.365-65.038
			c-44.667-13.841-80.426,9.603-138.471,32.172c-71.789,27.912-77.94,24.173-48.841,26.737c23.872,0.392,39.53,15.668,66.733,19.587
			c0.777-6.479-6.514-13.433-10.535-16.198c-9.476-6.517-10.664-5.336-28.252-7.319c12.714-23.658,51.393,27.716,81.494,22.111
			c11.071-2.062-7.02-28.558-35.596-35.888c-3.688-0.946-8.189-0.623-10.775-3.999c4.736-1.325,15.629-1.166,21.945,1.113
			c23.906,8.946,24.743,35.385,60.652,39.017c2.091,0.099,15.492,6.01,10.039-4.806c-18.874-37.436-31.066-37.186-64.13-46.064
			c1.39,0.373,10.21-10.628,38.085,6.246c18.153,10.989,16.004,19.123,25.707,28.271c17.985,16.957,58.043,14.344,44.937,4.742
			c-18.047-13.223-27.127-41.214-72.472-52.905C550.261,198.247,568.423,256.78,631.281,259.697z"/>
		<path d="M3347.929,3740.303c-1.768-0.082-16.521,0.793-16.521-1.335c-0.244,9.325,29.082,51.006,74.365,65.038
			c44.667,13.841,80.426-9.603,138.471-32.172c71.789-27.912,77.94-24.173,48.841-26.737c-23.872-0.392-39.53-15.668-66.733-19.587
			c-0.777,6.479,6.514,13.433,10.535,16.198c9.476,6.517,10.664,5.336,28.252,7.319c-12.714,23.657-51.393-27.717-81.494-22.111
			c-11.071,2.062,7.02,28.557,35.595,35.887c3.688,0.946,8.189,0.623,10.775,3.999c-4.736,1.325-15.629,1.166-21.945-1.114
			c-23.906-8.946-24.743-35.385-60.651-39.017c-2.092-0.099-15.492-6.01-10.039,4.806c18.874,37.436,31.066,37.186,64.13,46.065
			c-1.39-0.373-10.21,10.628-38.085-6.246c-18.153-10.989-16.004-19.123-25.707-28.271c-17.985-16.957-58.043-14.344-44.937-4.742
			c18.047,13.223,27.127,41.214,72.472,52.905C3428.948,3801.753,3410.786,3743.22,3347.929,3740.303z"/>
		<path d="M3340.574,253.982c-1.768,0.09-16.524-0.723-16.515,1.405c-0.283-9.324,28.867-51.128,74.09-65.351
			c44.608-14.03,80.466,9.264,138.605,31.587c71.906,27.609,78.042,23.844,48.953,26.53c-23.87,0.493-39.463,15.835-66.65,19.868
			c-0.804-6.475,6.457-13.46,10.467-16.243c9.448-6.557,10.642-5.381,28.221-7.438c-12.814-23.604-51.275,27.933-81.4,22.455
			c-11.08-2.015,6.899-28.587,35.444-36.037c3.684-0.961,8.187-0.657,10.758-4.044c-4.741-1.305-15.634-1.1-21.94,1.206
			c-23.868,9.047-24.594,35.489-60.486,39.273c-2.091,0.108-15.467,6.075-10.059-4.764c18.715-37.515,30.909-37.317,63.935-46.335
			c-1.388,0.379-10.255-10.585-38.058,6.407c-18.106,11.065-15.924,19.19-25.587,28.379c-17.913,17.033-57.982,14.589-44.917,4.932
			c17.991-13.299,26.953-41.328,72.248-53.21C3421.333,192.19,3403.418,250.799,3340.574,253.982z"/>
		<path d="M638.635,3746.018c1.768-0.09,16.524,0.723,16.515-1.405c0.283,9.323-28.867,51.128-74.09,65.351
			c-44.608,14.03-80.466-9.264-138.605-31.587c-71.906-27.609-78.041-23.844-48.953-26.53c23.87-0.493,39.463-15.835,66.65-19.868
			c0.804,6.475-6.457,13.46-10.467,16.243c-9.448,6.557-10.642,5.381-28.221,7.438c12.814,23.604,51.275-27.933,81.4-22.455
			c11.08,2.015-6.899,28.587-35.444,36.037c-3.684,0.961-8.186,0.657-10.758,4.044c4.741,1.305,15.634,1.1,21.94-1.206
			c23.868-9.047,24.594-35.49,60.486-39.273c2.091-0.108,15.467-6.075,10.059,4.764c-18.716,37.515-30.909,37.317-63.935,46.335
			c1.388-0.379,10.255,10.585,38.058-6.407c18.106-11.065,15.923-19.191,25.587-28.379c17.913-17.033,57.982-14.589,44.917-4.932
			c-17.991,13.299-26.953,41.328-72.248,53.21C557.876,3807.81,575.791,3749.2,638.635,3746.018z"/>
		<path d="M329.368,167.942c39.559-27.767,75.651-54.944,79.234-103.524c4.262-57.799-42.267-66.434-50.144-50.62
			c26.51-11.804,52.412,25.792,17.357,51.404c-19.694,14.389-55.778,18.897-63.876,45.791
			c-11.395,42.21-16.674,76.047-42.919,88.485c14.235-42.567,23.824-56.245,16.113-84.171c-3.596-13.023-14.988-33.434-4.444-48.156
			c4.885-6.821,15.505-9.795,21.998-4.482c-30.493-32.388-73.944,33.264-55.609,89.99c3.416,10.57,8.757,20.828,8.948,31.934
			c0.288,16.745-12.99,32.683-29.512,35.425C252.212,226.934,273.418,207.214,329.368,167.942z"/>
		<path d="M3649.842,3832.058c-39.559,27.767-75.652,54.944-79.234,103.524c-4.262,57.799,42.267,66.434,50.144,50.62
			c-26.51,11.804-52.412-25.792-17.357-51.404c19.694-14.389,55.778-18.897,63.876-45.791c11.395-42.21,16.674-76.047,42.919-88.485
			c-14.235,42.566-23.824,56.245-16.113,84.171c3.596,13.023,14.989,33.434,4.445,48.156c-4.886,6.821-15.505,9.795-21.998,4.481
			c30.493,32.388,73.944-33.264,55.609-89.99c-3.416-10.57-8.757-20.828-8.948-31.934c-0.288-16.745,12.99-32.683,29.511-35.425
			C3726.997,3773.066,3705.791,3792.786,3649.842,3832.058z"/>
		<path d="M3642.097,160.953c-39.676-27.6-75.883-54.624-79.669-103.189c-4.506-57.78,41.986-66.612,49.93-50.831
			c-26.56-11.692-52.303,26.013-17.14,51.477c19.755,14.306,55.857,18.662,64.068,45.521c11.573,42.162,16.995,75.976,43.292,88.303
			c-14.415-42.506-24.061-56.144-16.468-84.102c3.541-13.038,14.847-33.497,4.241-48.174c-4.914-6.8-15.546-9.729-22.017-4.389
			c30.356-32.516,74.084,32.952,55.988,89.755c-3.372,10.584-8.669,20.865-8.813,31.972c-0.217,16.746,13.127,32.628,29.661,35.3
			C3719.501,219.619,3698.212,199.989,3642.097,160.953z"/>
		<path d="M337.112,3839.047c39.676,27.6,75.883,54.624,79.67,103.189c4.506,57.781-41.986,66.612-49.93,50.831
			c26.559,11.692,52.303-26.013,17.14-51.477c-19.755-14.306-55.857-18.662-64.068-45.521
			c-11.573-42.162-16.995-75.976-43.292-88.303c14.415,42.506,24.061,56.144,16.468,84.103
			c-3.541,13.038-14.847,33.497-4.241,48.174c4.914,6.801,15.546,9.729,22.017,4.389c-30.356,32.516-74.084-32.952-55.988-89.755
			c3.372-10.584,8.669-20.865,8.813-31.972c0.217-16.746-13.128-32.628-29.661-35.3
			C259.709,3780.381,280.997,3800.011,337.112,3839.047z"/>
		<path d="M1254.947,138.284c-10.185-7.858-21.18-10.925-49.26-20.401c-5.563-1.877-7.313-0.512-8.9,3.95
			c-10.904,30.657-15.11,40.445-15.113,52.608c-0.006,33.317,35.438,49.588,46.349,41.063c-21.97-7.772-36.503-19.401-32.259-46.41
			c0.952-6.06,8.404-32.514,14.476-32.933c1.656-0.114,24.517,4.709,32.843,9.393c21.936,12.825,18.766,36.109,14.018,57.706
			c0.4-1.818,4.061-4.864,5.169-6.582C1274.051,178.391,1272.167,151.569,1254.947,138.284z"/>
		<path d="M2724.262,3861.717c10.185,7.858,21.18,10.925,49.26,20.401c5.563,1.877,7.313,0.512,8.9-3.95
			c10.904-30.657,15.11-40.445,15.113-52.608c0.006-33.317-35.438-49.588-46.349-41.063c21.97,7.772,36.503,19.401,32.259,46.41
			c-0.952,6.06-8.404,32.514-14.476,32.933c-1.656,0.114-24.517-4.709-32.843-9.393c-21.936-12.825-18.766-36.109-14.018-57.706
			c-0.4,1.818-4.061,4.864-5.169,6.582C2705.158,3821.609,2707.042,3848.431,2724.262,3861.717z"/>
		<path d="M2716.401,135.2c10.151-7.901,21.134-11.015,49.173-20.609c5.555-1.901,7.311-0.543,8.916,3.912
			c11.033,30.611,15.281,40.381,15.335,52.544c0.147,33.317-35.228,49.737-46.176,41.258c21.937-7.865,36.421-19.555,32.063-46.546
			c-0.978-6.055-8.541-32.478-14.615-32.871c-1.656-0.107-24.497,4.813-32.803,9.531c-21.882,12.918-18.613,36.188-13.774,57.765
			c-0.407-1.816-4.082-4.846-5.196-6.561C2697.466,175.388,2699.237,148.559,2716.401,135.2z"/>
		<path d="M1262.809,3864.8c-10.151,7.901-21.134,11.014-49.173,20.609c-5.555,1.901-7.311,0.542-8.916-3.912
			c-11.033-30.611-15.281-40.381-15.335-52.543c-0.147-33.317,35.228-49.737,46.176-41.258
			c-21.937,7.865-36.421,19.554-32.063,46.546c0.978,6.055,8.541,32.478,14.615,32.871c1.657,0.107,24.497-4.813,32.803-9.531
			c21.881-12.918,18.613-36.188,13.774-57.765c0.407,1.816,4.082,4.846,5.196,6.561
			C1281.743,3824.612,1279.972,3851.441,1262.809,3864.8z"/>
		<path d="M1246.572,195.586c-0.072-0.937,3.768-5.153,4.357-6.349c9.976-20.268-7.089-39.512-26.354-37.547
			c-13.135,1.34-24.345,13.297-24.834,26.492c-0.49,13.195,9.802,25.95,22.802,28.26c5.537,0.984,5.65-3.245,3.57-5.291
			c-1.171-1.152-2.773-1.727-4.212-2.519c-6.99-3.848-9.654-13.892-5.491-20.699C1221.849,169.037,1244.088,163.27,1246.572,195.586
			z"/>
		<path d="M2732.638,3804.414c0.072,0.937-3.768,5.153-4.357,6.349c-9.976,20.268,7.089,39.512,26.354,37.547
			c13.135-1.34,24.345-13.297,24.834-26.492s-9.802-25.95-22.802-28.26c-5.537-0.984-5.65,3.245-3.571,5.291
			c1.171,1.152,2.773,1.727,4.212,2.52c6.99,3.848,9.654,13.892,5.491,20.699C2757.36,3830.963,2735.121,3836.73,2732.638,3804.414z
			"/>
		<path d="M2725.018,192.467c0.068-0.937-3.79-5.137-4.383-6.33c-10.061-20.225,6.922-39.542,26.196-37.658
			c13.141,1.285,24.401,13.194,24.946,26.387c0.545,13.192-9.692,25.991-22.683,28.356c-5.533,1.007-5.663-3.221-3.593-5.275
			c1.166-1.157,2.766-1.739,4.201-2.537c6.973-3.878,9.595-13.933,5.404-20.722C2749.628,165.814,2727.365,160.141,2725.018,192.467
			z"/>
		<path d="M1254.191,3807.533c-0.068,0.937,3.79,5.137,4.383,6.33c10.061,20.225-6.922,39.542-26.196,37.658
			c-13.141-1.284-24.401-13.194-24.946-26.387c-0.545-13.193,9.693-25.991,22.683-28.356c5.533-1.007,5.663,3.221,3.593,5.275
			c-1.166,1.157-2.766,1.739-4.201,2.537c-6.973,3.878-9.595,13.933-5.404,20.722
			C1229.581,3834.186,1251.844,3839.859,1254.191,3807.533z"/>
		<path d="M1167.973,112.707c3.953,16.508-11.83,30.745-18.788,42.985c-25.202,44.332,17.71,97.113,66.239,81.53
			c30.869-9.913,4.109-9.56,0.01-10.356c-35.244-6.841-51.414-32.847-50.695-54.352c0.668-19.982,14.674-37.273,16.213-57.139
			c2.991-38.621-41.887-41.017-46.765-12.968C1145.625,91.882,1164.349,97.574,1167.973,112.707z"/>
		<path d="M2811.236,3887.293c-3.953-16.508,11.83-30.745,18.788-42.985c25.202-44.332-17.71-97.113-66.24-81.53
			c-30.869,9.913-4.109,9.56-0.01,10.356c35.244,6.841,51.414,32.847,50.695,54.352c-0.668,19.982-14.675,37.273-16.213,57.139
			c-2.99,38.621,41.887,41.017,46.765,12.968C2833.585,3908.117,2814.86,3902.426,2811.236,3887.293z"/>
		<path d="M2803.266,109.258c-3.883,16.524,11.96,30.695,18.969,42.905c25.389,44.225-17.301,97.187-65.895,81.808
			c-30.91-9.782-4.149-9.543-0.054-10.356c35.215-6.99,51.275-33.064,50.466-54.566c-0.752-19.979-14.832-37.211-16.454-57.07
			c-3.154-38.608,41.713-41.193,46.709-13.165C2825.527,88.339,2806.826,94.109,2803.266,109.258z"/>
		<path d="M1175.943,3890.742c3.883-16.524-11.96-30.695-18.969-42.905c-25.389-44.225,17.3-97.187,65.895-81.808
			c30.911,9.782,4.149,9.543,0.054,10.356c-35.215,6.99-51.275,33.063-50.465,54.566c0.752,19.979,14.832,37.211,16.454,57.07
			c3.154,38.608-41.714,41.193-46.71,13.165C1153.683,3911.661,1172.383,3905.891,1175.943,3890.742z"/>
		<path d="M289.514,216.761c-6.42,1.319-4.727,6.932,2.113,5.322C382.381,200.72,392.855,95.924,613.957,98.226
			c151.887,1.581,220.878,34.851,276.498,79.48c23.53,21.742,44.237,47.676,49.733,79.232c4.797,40.531-5.35,76.321-41.787,94.601
			c-4.295,2.155-10.889,5.966-15.769,5.037c-5.272-1.004-9.698-6.971-9.273-12.18c-0.383-3.412,1.64-7.53-1.006-10.38
			c-8.543,5.917-9.674,21.972,5.579,33.379c23.896,17.87,64.938-11.904,79.781-46.889c34.64-81.651-22.064-160.76-106.479-201.762
			c-95.082-47.199-256.961-64.029-380.149-17.286C381.851,135.24,352.752,203.765,289.514,216.761z"/>
		<path d="M3689.695,3783.24c6.42-1.319,4.727-6.932-2.113-5.322c-90.754,21.363-101.228,126.159-322.329,123.857
			c-151.887-1.581-220.878-34.851-276.498-79.48c-23.53-21.742-44.237-47.676-49.733-79.232
			c-4.797-40.531,5.35-76.321,41.787-94.601c4.295-2.155,10.889-5.966,15.769-5.037c5.272,1.004,9.698,6.971,9.273,12.18
			c0.383,3.412-1.64,7.531,1.006,10.38c8.543-5.917,9.674-21.972-5.579-33.379c-23.896-17.87-64.938,11.904-79.781,46.889
			c-34.64,81.651,22.064,160.76,106.479,201.762c95.082,47.198,256.961,64.029,380.149,17.286
			C3597.358,3864.76,3626.458,3796.235,3689.695,3783.24z"/>
		<path d="M3682.156,209.604c6.425,1.292,4.756,6.912-2.091,5.331c-90.844-20.98-101.759-125.731-322.849-122.496
			c-151.879,2.222-220.729,35.782-276.16,80.646c-23.438,21.841-44.036,47.862-49.398,79.441
			c-4.625,40.551,5.672,76.297,42.186,94.423c4.304,2.137,10.914,5.92,15.79,4.97c5.267-1.026,9.669-7.012,9.222-12.219
			c0.369-3.414-1.672-7.523,0.962-10.384c8.568,5.881,9.767,21.931-5.438,33.402c-23.821,17.971-64.988-11.63-79.978-46.552
			c-34.984-81.504,21.386-160.851,105.627-202.209c94.882-47.599,256.688-65.112,380.073-18.89
			C3589.476,128.473,3618.865,196.875,3682.156,209.604z"/>
		<path d="M297.053,3790.396c-6.425-1.292-4.756-6.912,2.091-5.331c90.843,20.98,101.759,125.731,322.849,122.496
			c151.879-2.222,220.729-35.782,276.16-80.646c23.438-21.841,44.036-47.862,49.398-79.441c4.626-40.551-5.672-76.297-42.186-94.423
			c-4.304-2.137-10.914-5.92-15.79-4.97c-5.267,1.026-9.669,7.012-9.222,12.219c-0.369,3.414,1.672,7.523-0.962,10.384
			c-8.568-5.881-9.767-21.931,5.438-33.402c23.821-17.971,64.988,11.63,79.978,46.552c34.985,81.504-21.386,160.851-105.627,202.209
			c-94.882,47.599-256.688,65.112-380.073,18.89C389.733,3871.527,360.345,3803.125,297.053,3790.396z"/>
		<path d="M1006.488,113.242c64.521,8.72,81.702-47.995,61.999-53.74c8.108,13.41-3.202,33.364-26.195,27.615
			c-18.958-4.741-22.718-19.282-47.512-12.805c-17.118,4.472-31.676,17.074-49.418,19.176
			C953.42,98.739,986.923,110.598,1006.488,113.242z"/>
		<path d="M2972.721,3886.758c-64.521-8.72-81.702,47.995-61.999,53.74c-8.108-13.409,3.202-33.364,26.195-27.615
			c18.958,4.741,22.718,19.282,47.512,12.805c17.118-4.472,31.676-17.074,49.418-19.176
			C3025.789,3901.261,2992.286,3889.402,2972.721,3886.758z"/>
		<path d="M2964.752,109.111c-64.484,8.992-81.904-47.65-62.225-53.477c-8.051,13.444,3.343,33.35,26.311,27.504
			c18.938-4.821,22.636-19.378,47.458-13.005c17.137,4.4,31.748,16.94,49.498,18.967
			C3017.758,94.384,2984.305,106.384,2964.752,109.111z"/>
		<path d="M1014.458,3890.889c64.483-8.992,81.904,47.65,62.225,53.478c8.051-13.444-3.343-33.35-26.311-27.504
			c-18.938,4.821-22.636,19.378-47.458,13.005c-17.137-4.4-31.748-16.94-49.498-18.968
			C961.451,3905.616,994.904,3893.616,1014.458,3890.889z"/>
		<path d="M1278.018,147.642c13.966,31.779-10.173,61.837-34.675,84.902c-8.393,7.902-23.647,21.14-21.423,38.013
			c2.902,22.007,29.427,19.91,30.091,4.734c-6.385,14.143-34.004-4.618-7.124-26.435c12.462-10.115,27.798-16.339,39.802-26.993
			c30.044-26.665,30.977-74.426,2.687-102.399c-41.047-40.588-123.412-28.753-111.96-65.059c4.058-12.866,22.235-13.56,27.261-1.038
			c1.135-7.939-5.225-15.885-13.088-17.464c-14.573-2.927-29.328,12.631-23.23,32.518
			C1180.163,113.439,1258.46,103.139,1278.018,147.642z"/>
		<path d="M2701.191,3852.358c-13.966-31.779,10.173-61.837,34.675-84.902c8.393-7.901,23.647-21.14,21.423-38.013
			c-2.902-22.007-29.427-19.91-30.091-4.734c6.385-14.144,34.004,4.618,7.124,26.435c-12.462,10.115-27.798,16.339-39.802,26.993
			c-30.044,26.665-30.977,74.426-2.687,102.399c41.047,40.588,123.412,28.753,111.96,65.059
			c-4.058,12.866-22.236,13.56-27.261,1.038c-1.135,7.939,5.225,15.885,13.088,17.464c14.573,2.927,29.328-12.631,23.23-32.518
			C2799.046,3886.561,2720.749,3896.861,2701.191,3852.358z"/>
		<path d="M2693.369,144.657c-13.831,31.838,10.434,61.793,35.033,84.755c8.427,7.866,23.737,21.04,21.583,37.922
			c-2.809,22.019-29.342,20.034-30.071,4.86c6.445,14.116,33.984-4.761,7.012-26.465c-12.505-10.062-27.866-16.221-39.916-26.825
			c-30.156-26.538-31.291-74.295-3.119-102.387c40.875-40.761,123.289-29.274,111.685-65.531
			c-4.113-12.849-22.292-13.466-27.265-0.923c-1.168-7.934,5.158-15.907,13.014-17.519c14.561-2.989,29.382,12.507,23.367,32.42
			C2791.079,110.04,2712.739,100.071,2693.369,144.657z"/>
		<path d="M1285.84,3855.344c13.832-31.838-10.434-61.794-35.033-84.755c-8.427-7.866-23.736-21.04-21.583-37.922
			c2.809-22.019,29.343-20.034,30.071-4.86c-6.445-14.116-33.984,4.761-7.013,26.465c12.505,10.062,27.867,16.221,39.916,26.825
			c30.156,26.538,31.29,74.295,3.119,102.387c-40.875,40.76-123.289,29.274-111.685,65.531c4.113,12.849,22.292,13.466,27.265,0.923
			c1.168,7.935-5.158,15.907-13.014,17.519c-14.561,2.989-29.381-12.507-23.367-32.42
			C1188.13,3889.96,1266.47,3899.929,1285.84,3855.344z"/>
		<path d="M1111.823,263.552c82.879,120.474,170.587,72.779,174.411,21.072c2.693-36.413-35.087-39.537-37.916-19.081
			c4.98-8.249,20.548-4.846,20.837,9.867c0.421,21.421-41.053,64.313-102.07,13.542c-65.385-60.071-70.158-162.111-355.165-209.466
			c-2.659-0.442-8.017-1.21-4.231,2.736c2.239,2.331,10.56,3.153,13.727,4.081C962.643,127.677,1037.025,154.824,1111.823,263.552z"
			/>
		<path d="M2867.386,3736.448c-82.879-120.474-170.587-72.779-174.411-21.072c-2.693,36.413,35.087,39.537,37.916,19.081
			c-4.981,8.249-20.548,4.846-20.837-9.867c-0.421-21.421,41.053-64.313,102.07-13.542
			c65.385,60.071,70.158,162.111,355.166,209.466c2.659,0.442,8.017,1.21,4.231-2.736c-2.239-2.331-10.56-3.154-13.727-4.081
			C3016.566,3872.323,2942.185,3845.176,2867.386,3736.448z"/>
		<path d="M2860.052,259.864c-82.37,120.823-170.279,73.498-174.32,21.808c-2.846-36.402,34.92-39.685,37.835-19.241
			c-5.015-8.228-20.568-4.76-20.795,9.955c-0.33,21.423,41.324,64.139,102.126,13.111c65.131-60.347,69.473-162.406,354.279-210.963
			c2.657-0.453,8.012-1.244,4.243,2.719c-2.229,2.34-10.547,3.198-13.71,4.139C3008.657,123.361,2934.391,150.821,2860.052,259.864z
			"/>
		<path d="M1119.157,3740.136c82.37-120.823,170.279-73.498,174.32-21.808c2.846,36.402-34.92,39.685-37.835,19.241
			c5.015,8.228,20.568,4.76,20.795-9.955c0.33-21.423-41.324-64.139-102.126-13.111c-65.131,60.347-69.473,162.406-354.279,210.963
			c-2.657,0.453-8.012,1.244-4.243-2.719c2.229-2.34,10.546-3.198,13.71-4.139
			C970.552,3876.639,1044.818,3849.179,1119.157,3740.136z"/>
	</g>
	<polygon points="1568.518,187.738 1542.179,147.033 1985.696,147.281 2429.208,145.161 2403.042,185.978 	"/>
	<polygon points="2410.692,3812.262 2437.031,3852.967 1993.513,3852.719 1550.001,3854.839 1576.168,3814.022 	"/>
	<polygon points="139.571,2003.903 140.821,1564.563 171.949,1586.512 172.798,2003.833 173.709,2421.153 142.674,2443.233 	"/>
	<polygon points="3839.638,1996.097 3838.388,2435.437 3807.261,2413.488 3806.412,1996.167 3805.5,1578.847 3836.535,1556.767 	"/>
</g>
</svg>
